<svg fill="none" height="32" viewBox="0 0 32 32" width="32" xmlns="http://www.w3.org/2000/svg" xmlns:xlink="http://www.w3.org/1999/xlink"><filter id="a" color-interpolation-filters="sRGB" filterUnits="userSpaceOnUse" height="6.698" width="5.72693" x="3.55408" y="20.3203"><feFlood flood-opacity="0" result="BackgroundImageFix"/><feBlend in="SourceGraphic" in2="BackgroundImageFix" mode="normal" result="shape"/><feGaussianBlur result="effect1_foregroundBlur_6891_5252" stdDeviation=".75"/></filter><filter id="b" color-interpolation-filters="sRGB" filterUnits="userSpaceOnUse" height="11.6356" width="9.00903" x="19.098" y="4.5188"><feFlood flood-opacity="0" result="BackgroundImageFix"/><feBlend in="SourceGraphic" in2="BackgroundImageFix" mode="normal" result="shape"/><feGaussianBlur result="effect1_foregroundBlur_6891_5252" stdDeviation=".5"/></filter><filter id="c" color-interpolation-filters="sRGB" filterUnits="userSpaceOnUse" height="4.625" width="3.41745" x="24.8055" y="4.41406"><feFlood flood-opacity="0" result="BackgroundImageFix"/><feBlend in="SourceGraphic" in2="BackgroundImageFix" mode="normal" result="shape"/><feGaussianBlur result="effect1_foregroundBlur_6891_5252" stdDeviation=".5"/></filter><filter id="d" color-interpolation-filters="sRGB" filterUnits="userSpaceOnUse" height="10.7286" width="8.94989" x="2.94611" y="3.22656"><feFlood flood-opacity="0" result="BackgroundImageFix"/><feBlend in="SourceGraphic" in2="BackgroundImageFix" mode="normal" result="shape"/><feGaussianBlur result="effect1_foregroundBlur_6891_5252" stdDeviation="1"/></filter><filter id="e" color-interpolation-filters="sRGB" filterUnits="userSpaceOnUse" height="3.02374" width="3.66141" x="13.7482" y="20.056"><feFlood flood-opacity="0" result="BackgroundImageFix"/><feBlend in="SourceGraphic" in2="BackgroundImageFix" mode="normal" result="shape"/><feGaussianBlur result="effect1_foregroundBlur_6891_5252" stdDeviation=".25"/></filter><filter id="f" color-interpolation-filters="sRGB" filterUnits="userSpaceOnUse" height="1.74852" width="2.72344" x="14.9086" y="19.8671"><feFlood flood-opacity="0" result="BackgroundImageFix"/><feBlend in="SourceGraphic" in2="BackgroundImageFix" mode="normal" result="shape"/><feGaussianBlur result="effect1_foregroundBlur_6891_5252" stdDeviation=".3"/></filter><filter id="g" color-interpolation-filters="sRGB" filterUnits="userSpaceOnUse" height="4.01282" width="6.00494" x="23.685" y="19.9796"><feFlood flood-opacity="0" result="BackgroundImageFix"/><feBlend in="SourceGraphic" in2="BackgroundImageFix" mode="normal" result="shape"/><feGaussianBlur result="effect1_foregroundBlur_6891_5252" stdDeviation=".25"/></filter><filter id="h" color-interpolation-filters="sRGB" filterUnits="userSpaceOnUse" height="3.56561" width="4.12671" x="23.6851" y="23.8235"><feFlood flood-opacity="0" result="BackgroundImageFix"/><feBlend in="SourceGraphic" in2="BackgroundImageFix" mode="normal" result="shape"/><feGaussianBlur result="effect1_foregroundBlur_6891_5252" stdDeviation=".25"/></filter><filter id="i" color-interpolation-filters="sRGB" filterUnits="userSpaceOnUse" height="3.11255" width="5.10474" x="24.9163" y="20.2484"><feFlood flood-opacity="0" result="BackgroundImageFix"/><feBlend in="SourceGraphic" in2="BackgroundImageFix" mode="normal" result="shape"/><feGaussianBlur result="effect1_foregroundBlur_6891_5252" stdDeviation=".25"/></filter><filter id="j" color-interpolation-filters="sRGB" filterUnits="userSpaceOnUse" height="1.3374" width="1.36264" x="28.9245" y="19.9119"><feFlood flood-opacity="0" result="BackgroundImageFix"/><feBlend in="SourceGraphic" in2="BackgroundImageFix" mode="normal" result="shape"/><feGaussianBlur result="effect1_foregroundBlur_6891_5252" stdDeviation=".25"/></filter><filter id="k" color-interpolation-filters="sRGB" filterUnits="userSpaceOnUse" height="3.11908" width="5.10162" x="24.8484" y="23.8991"><feFlood flood-opacity="0" result="BackgroundImageFix"/><feBlend in="SourceGraphic" in2="BackgroundImageFix" mode="normal" result="shape"/><feGaussianBlur result="effect1_foregroundBlur_6891_5252" stdDeviation=".25"/></filter><filter id="l" color-interpolation-filters="sRGB" filterUnits="userSpaceOnUse" height="1.34009" width="1.35999" x="28.8604" y="25.6981"><feFlood flood-opacity="0" result="BackgroundImageFix"/><feBlend in="SourceGraphic" in2="BackgroundImageFix" mode="normal" result="shape"/><feGaussianBlur result="effect1_foregroundBlur_6891_5252" stdDeviation=".25"/></filter><filter id="m" color-interpolation-filters="sRGB" filterUnits="userSpaceOnUse" height="3.11908" width="5.10162" x="2.14175" y="23.9108"><feFlood flood-opacity="0" result="BackgroundImageFix"/><feBlend in="SourceGraphic" in2="BackgroundImageFix" mode="normal" result="shape"/><feGaussianBlur result="effect1_foregroundBlur_6891_5252" stdDeviation=".25"/></filter><filter id="n" color-interpolation-filters="sRGB" filterUnits="userSpaceOnUse" height="1.33594" width="1.36395" x="5.96417" y="23.8369"><feFlood flood-opacity="0" result="BackgroundImageFix"/><feBlend in="SourceGraphic" in2="BackgroundImageFix" mode="normal" result="shape"/><feGaussianBlur result="effect1_foregroundBlur_6891_5252" stdDeviation=".25"/></filter><filter id="o" color-interpolation-filters="sRGB" filterUnits="userSpaceOnUse" height="3.09381" width="5.11365" x="2.21042" y="20.0551"><feFlood flood-opacity="0" result="BackgroundImageFix"/><feBlend in="SourceGraphic" in2="BackgroundImageFix" mode="normal" result="shape"/><feGaussianBlur result="effect1_foregroundBlur_6891_5252" stdDeviation=".25"/></filter><filter id="p" color-interpolation-filters="sRGB" filterUnits="userSpaceOnUse" height="1.36389" width="1.33606" x="6.08273" y="21.8224"><feFlood flood-opacity="0" result="BackgroundImageFix"/><feBlend in="SourceGraphic" in2="BackgroundImageFix" mode="normal" result="shape"/><feGaussianBlur result="effect1_foregroundBlur_6891_5252" stdDeviation=".25"/></filter><filter id="q" color-interpolation-filters="sRGB" filterUnits="userSpaceOnUse" height="3.94061" width="2.55063" x="18.1563" y="17.0275"><feFlood flood-opacity="0" result="BackgroundImageFix"/><feBlend in="SourceGraphic" in2="BackgroundImageFix" mode="normal" result="shape"/><feGaussianBlur result="effect1_foregroundBlur_6891_5252" stdDeviation=".25"/></filter><filter id="r" color-interpolation-filters="sRGB" filterUnits="userSpaceOnUse" height="3.94061" width="2.55063" x="10.3301" y="17.0275"><feFlood flood-opacity="0" result="BackgroundImageFix"/><feBlend in="SourceGraphic" in2="BackgroundImageFix" mode="normal" result="shape"/><feGaussianBlur result="effect1_foregroundBlur_6891_5252" stdDeviation=".25"/></filter><filter id="s" color-interpolation-filters="sRGB" filterUnits="userSpaceOnUse" height="1.47247" width="1.47244" x="19.4707" y="17.0275"><feFlood flood-opacity="0" result="BackgroundImageFix"/><feBlend in="SourceGraphic" in2="BackgroundImageFix" mode="normal" result="shape"/><feGaussianBlur result="effect1_foregroundBlur_6891_5252" stdDeviation=".25"/></filter><filter id="t" color-interpolation-filters="sRGB" filterUnits="userSpaceOnUse" height="1.47247" width="1.47244" x="11.529" y="17.0275"><feFlood flood-opacity="0" result="BackgroundImageFix"/><feBlend in="SourceGraphic" in2="BackgroundImageFix" mode="normal" result="shape"/><feGaussianBlur result="effect1_foregroundBlur_6891_5252" stdDeviation=".25"/></filter><filter id="u" color-interpolation-filters="sRGB" filterUnits="userSpaceOnUse" height="22.1857" width="12.5851" x="18.1024" y="6.10156"><feFlood flood-opacity="0" result="BackgroundImageFix"/><feBlend in="SourceGraphic" in2="BackgroundImageFix" mode="normal" result="shape"/><feGaussianBlur result="effect1_foregroundBlur_6891_5252" stdDeviation="2"/></filter><filter id="v" color-interpolation-filters="sRGB" filterUnits="userSpaceOnUse" height="7.1375" width="4.825" x="22.4086" y="6.76719"><feFlood flood-opacity="0" result="BackgroundImageFix"/><feBlend in="SourceGraphic" in2="BackgroundImageFix" mode="normal" result="shape"/><feGaussianBlur result="effect1_foregroundBlur_6891_5252" stdDeviation=".3"/></filter><filter id="w" color-interpolation-filters="sRGB" filterUnits="userSpaceOnUse" height="4.73438" width="4.53125" x="22.7274" y="9.28906"><feFlood flood-opacity="0" result="BackgroundImageFix"/><feBlend in="SourceGraphic" in2="BackgroundImageFix" mode="normal" result="shape"/><feGaussianBlur result="effect1_foregroundBlur_6891_5252" stdDeviation=".375"/></filter><filter id="x" color-interpolation-filters="sRGB" filterUnits="userSpaceOnUse" height="6.90771" width="4.46875" x="4.72321" y="6.99927"><feFlood flood-opacity="0" result="BackgroundImageFix"/><feBlend in="SourceGraphic" in2="BackgroundImageFix" mode="normal" result="shape"/><feGaussianBlur result="effect1_foregroundBlur_6891_5252" stdDeviation=".25"/></filter><filter id="y" color-interpolation-filters="sRGB" filterUnits="userSpaceOnUse" height="6.33752" width="1.15002" x="4.64819" y="7.15155"><feFlood flood-opacity="0" result="BackgroundImageFix"/><feBlend in="SourceGraphic" in2="BackgroundImageFix" mode="normal" result="shape"/><feGaussianBlur result="effect1_foregroundBlur_6891_5252" stdDeviation=".25"/></filter><linearGradient id="z" gradientUnits="userSpaceOnUse" x1="7.90668" x2="7.90668" y1="1.34978" y2="30.99"><stop offset=".288159" stop-color="#f2cc26"/><stop offset=".762024" stop-color="#e99e20"/><stop offset=".9925" stop-color="#e3821d"/><stop offset="1" stop-color="#e3801d"/></linearGradient><linearGradient id="A"><stop offset="0" stop-color="#e99e20" stop-opacity="0"/><stop offset=".9925" stop-color="#e3821d"/><stop offset="1" stop-color="#e3801d"/></linearGradient><linearGradient id="B" gradientUnits="userSpaceOnUse" x1="8.83102" x2="1.16971" xlink:href="#A" y1="12.033" y2="12.033"/><linearGradient id="C" gradientUnits="userSpaceOnUse" x1="26.7911" x2="30.245" xlink:href="#A" y1="12.033" y2="12.033"/><linearGradient id="D" gradientUnits="userSpaceOnUse" x1="16.001" x2="16" y1="-1.59459" y2="30.99"><stop offset=".77079" stop-color="#f59639" stop-opacity="0"/><stop offset="1" stop-color="#ff63c4"/></linearGradient><linearGradient id="E" gradientUnits="userSpaceOnUse" x1="16" x2="16" y1="11.2521" y2="32.475"><stop offset=".854227" stop-color="#fff" stop-opacity="0"/><stop offset=".985362" stop-color="#fff"/></linearGradient><radialGradient id="F" cx="0" cy="0" gradientTransform="matrix(3.04568928 4.42400808 -8.78922202 6.05090198 22.1755 4.47688)" gradientUnits="userSpaceOnUse" r="1"><stop offset="0" stop-color="#ffa720"/><stop offset=".921158" stop-color="#ffa720" stop-opacity="0"/></radialGradient><linearGradient id="G" gradientUnits="userSpaceOnUse" x1="21.9081" x2="28.1649" y1="6.85159" y2="13.6953"><stop offset="0" stop-color="#ffa720"/><stop offset="1" stop-color="#ffa720" stop-opacity="0"/></linearGradient><linearGradient id="H" gradientUnits="userSpaceOnUse" x1="10.6023" x2="4.74258" y1="10.6172" y2="10.0703"><stop offset=".437473" stop-color="#ed8c1b"/><stop offset="1" stop-color="#ffb03a"/></linearGradient><linearGradient id="I" gradientUnits="userSpaceOnUse" x1="27.0399" x2="26.4438" y1="4.96094" y2="7.30239"><stop offset=".28598" stop-color="#ffe792"/><stop offset="1" stop-color="#ffdd65" stop-opacity="0"/></linearGradient><linearGradient id="J" gradientUnits="userSpaceOnUse" x1="15.7508" x2="15.0789" y1="22.3512" y2="23.4449"><stop offset="0" stop-color="#e3900e"/><stop offset="1" stop-color="#ea9d26" stop-opacity="0"/></linearGradient><radialGradient id="K" cx="0" cy="0" gradientTransform="matrix(-1.89062885 -.95312092 .95875693 -1.90180855 16.4461 21.1797)" gradientUnits="userSpaceOnUse" r="1"><stop offset="0" stop-color="#ea088b"/><stop offset="1" stop-color="#e61e27"/></radialGradient><linearGradient id="L" gradientUnits="userSpaceOnUse" x1="17.2036" x2="15.6801" y1="20.7414" y2="20.7414"><stop offset="0" stop-color="#fff" stop-opacity=".9"/><stop offset="1" stop-color="#fff" stop-opacity="0"/></linearGradient><linearGradient id="M" gradientUnits="userSpaceOnUse" x1="24.2898" x2="28.0242" y1="23.236" y2="21.3203"><stop offset="0" stop-color="#e88105"/><stop offset="1" stop-color="#e37d02" stop-opacity="0"/></linearGradient><linearGradient id="N" gradientUnits="userSpaceOnUse" x1="24.2898" x2="28.0242" y1="24.5798" y2="26.4955"><stop offset=".286458" stop-color="#de7d07"/><stop offset=".817708" stop-color="#e37d02" stop-opacity="0"/></linearGradient><linearGradient id="O"><stop offset=".15625" stop-color="#d64a38"/><stop offset="1" stop-color="#fb7425"/></linearGradient><linearGradient id="P" gradientUnits="userSpaceOnUse" x1="25.2898" x2="29.371" xlink:href="#O" y1="22.9453" y2="21.0078"/><linearGradient id="Q" gradientUnits="userSpaceOnUse" x1="25.0739" x2="29.1465" xlink:href="#O" y1="24.7096" y2="26.6651"/><linearGradient id="R" gradientUnits="userSpaceOnUse" x1="7.01785" x2="2.94525" xlink:href="#O" y1="24.7214" y2="26.6768"/><linearGradient id="S" gradientUnits="userSpaceOnUse" x1="6.81823" x2="2.72754" xlink:href="#O" y1="22.9292" y2="21.0119"/><linearGradient id="T" gradientUnits="userSpaceOnUse" x1="16.0466" x2="16.0466" y1="27.5225" y2="23.1004"><stop offset="0" stop-color="#e61e27"/><stop offset="1" stop-color="#672a7a"/></linearGradient><linearGradient id="U" gradientUnits="userSpaceOnUse" x1="20.6882" x2="21.6884" y1="19.6797" y2="23.1406"><stop offset="0" stop-color="#ec9611"/><stop offset="1" stop-color="#ea9d26" stop-opacity="0"/></linearGradient><linearGradient id="V"><stop offset="0" stop-color="#432a3d"/><stop offset=".567708" stop-color="#684e61"/><stop offset=".765625" stop-color="#43253d"/></linearGradient><linearGradient id="W" gradientUnits="userSpaceOnUse" x1="22.8992" x2="18.4305" xlink:href="#V" y1="18.2109" y2="18.211"/><linearGradient id="X"><stop offset=".326531" stop-color="#43253d" stop-opacity="0"/><stop offset="1" stop-color="#43253d"/></linearGradient><linearGradient id="Y" gradientUnits="userSpaceOnUse" x1="20.3211" x2="20.3211" xlink:href="#X" y1="18.0547" y2="20.3516"/><linearGradient id="Z" gradientUnits="userSpaceOnUse" x1="12.862" x2="13.8622" y1="19.6797" y2="23.1406"><stop offset="0" stop-color="#e89311"/><stop offset="1" stop-color="#ea9d26" stop-opacity="0"/></linearGradient><linearGradient id="aa" gradientUnits="userSpaceOnUse" x1="14.9575" x2="10.4887" xlink:href="#V" y1="18.2109" y2="18.211"/><linearGradient id="ab" gradientUnits="userSpaceOnUse" x1="12.3793" x2="12.3793" xlink:href="#X" y1="18.0547" y2="20.3516"/><linearGradient id="ac" gradientUnits="userSpaceOnUse" x1="23.3524" x2="22.9558" y1="10.8385" y2="22.8891"><stop offset=".548257" stop-color="#ffdd65"/><stop offset="1" stop-color="#ffdd65" stop-opacity="0"/></linearGradient><linearGradient id="ad" gradientUnits="userSpaceOnUse" x1="26.5398" x2="25.2898" y1="15.5078" y2="12.0391"><stop offset="0" stop-color="#ef8a47"/><stop offset="1" stop-color="#ef8a47" stop-opacity="0"/></linearGradient><radialGradient id="ae" cx="0" cy="0" gradientTransform="matrix(4.40624866 6.46874874 -7.75589325 5.28299918 22.868 7.77344)" gradientUnits="userSpaceOnUse" r="1"><stop offset="0" stop-color="#ffdf70"/><stop offset="1" stop-color="#ffdf70" stop-opacity="0"/></radialGradient><linearGradient id="af" gradientUnits="userSpaceOnUse" x1="25.0555" x2="25.0555" y1="10.4766" y2="12.8203"><stop offset=".432292" stop-color="#ffe7a3"/><stop offset="1" stop-color="#ffdf83" stop-opacity="0"/></linearGradient><path d="m4 25.942c0 2.2319 1.76327 4.058 3.91837 4.058h16.16323c2.1551 0 3.9184-1.9275 3.9184-4.1594v-19.4109c0-1.3-1.5901-1.9-2.4845-1l-4.5419 4.5703h-9.8119l-4.6617-4.5703c-.9-.9-2.5-.3-2.5 1z" fill="url(#z)"/><path d="m4 25.942c0 2.2319 1.76327 4.058 3.91837 4.058h16.16323c2.1551 0 3.9184-1.9275 3.9184-4.1594v-19.4109c0-1.3-1.5901-1.9-2.4845-1l-4.5419 4.5703h-9.8119l-4.6617-4.5703c-.9-.9-2.5-.3-2.5 1z" fill="url(#B)"/><path d="m4 25.942c0 2.2319 1.76327 4.058 3.91837 4.058h16.16323c2.1551 0 3.9184-1.9275 3.9184-4.1594v-19.4109c0-1.3-1.5901-1.9-2.4845-1l-4.5419 4.5703h-9.8119l-4.6617-4.5703c-.9-.9-2.5-.3-2.5 1z" fill="url(#C)"/><path d="m4 25.942c0 2.2319 1.76327 4.058 3.91837 4.058h16.16323c2.1551 0 3.9184-1.9275 3.9184-4.1594v-19.4109c0-1.3-1.5901-1.9-2.4845-1l-4.5419 4.5703h-9.8119l-4.6617-4.5703c-.9-.9-2.5-.3-2.5 1z" fill="url(#D)"/><path d="m4 25.942c0 2.2319 1.76327 4.058 3.91837 4.058h16.16323c2.1551 0 3.9184-1.9275 3.9184-4.1594v-19.4109c0-1.3-1.5901-1.9-2.4845-1l-4.5419 4.5703h-9.8119l-4.6617-4.5703c-.9-.9-2.5-.3-2.5 1z" fill="url(#E)"/><path d="m4 25.942c0 2.2319 1.76327 4.058 3.91837 4.058h16.16323c2.1551 0 3.9184-1.9275 3.9184-4.1594v-19.4109c0-1.3-1.5901-1.9-2.4845-1l-4.5419 4.5703h-9.8119l-4.6617-4.5703c-.9-.9-2.5-.3-2.5 1z" fill="url(#F)"/><g filter="url(#a)"><rect fill="#d67908" height="3.69801" rx="1.36346" width="2.72692" x="5.05408" y="21.8203"/></g><g filter="url(#b)"><path d="m20.7508 10.2007c-2.9833.1075 5.2265 4.9537 5.2265 4.9537l1.125-9.06245c.0547-.46094-.3641-.95351-1.25-.13098 0 0-3.8265 3.76801-4.0136 3.95222s-.408.24891-.7016.28751c-.1496.0196-.2356-.0055-.3863 0z" fill="url(#G)"/></g><path d="m6.13258 13.5034 2.8-2.6c.32-.3.32-.78 0-1.06996l-3.01468-2.67718c-.38282-.33594-1.17532-.22656-1.17532.60718v5.19996c0 .8335.88 1.02 1.39.54z" fill="url(#H)"/><g filter="url(#c)"><path d="m26.4909 5.65184c.0579-.14368.1973-.23778.3522-.23778.2098 0 .3798.17005.3798.37982v2.24518l-1.4174-.6875z" fill="url(#I)"/></g><g filter="url(#d)"><path d="m5.44611 5.72656 3.37496 3.21954c.75411.71938.76824 1.9185.03129 2.6555" stroke="#ffdf70" stroke-linecap="round"/></g><g filter="url(#e)"><path d="m14.8054 20.6502.0643-.015c.4736-.1104.9669-.1053 1.438.015.5211.0982.8322.6955.3922 1.1255l-.5508.6016c-.27.27-.8628.27-1.1328 0l-.5429-.6016c-.4493-.5078-.168-1.0156.332-1.1255z" fill="url(#J)"/></g><path d="m15.2265 20.2066.0643-.015c.4736-.1105.9669-.1054 1.4381.015.5211.0981.8321.6954.3921 1.1254l-.5507.6016c-.27.27-.8628.27-1.1328 0l-.543-.6016c-.4492-.5078-.168-1.0156.332-1.1254z" fill="url(#K)"/><g filter="url(#f)"><ellipse cx="16.2703" cy="20.7414" fill="url(#L)" rx=".761719" ry=".274258"/></g><g filter="url(#g)"><path d="m24.7851 22.8923 3.8047-1.8125" stroke="url(#M)" stroke-linecap="round" stroke-miterlimit="10" stroke-width="1.2"/></g><g filter="url(#h)"><path d="m24.7851 24.9235 1.9266 1.3656" stroke="url(#N)" stroke-linecap="round" stroke-miterlimit="10" stroke-width="1.2"/></g><path d="m25.5663 22.5391 3.8047-1.8125" stroke="url(#P)" stroke-linecap="round" stroke-miterlimit="10" stroke-width="1.2"/><g filter="url(#i)"><path d="m25.5663 22.7109 3.8047-1.8125" stroke="#ff8485" stroke-linecap="round" stroke-miterlimit="10" stroke-width=".3"/></g><g filter="url(#j)"><ellipse cx="29.6059" cy="20.5806" fill="#ffdd86" rx=".18384" ry=".165827" transform="matrix(.92223134 -.38663853 .38663853 .92223134 -5.654842 13.047307)"/></g><path d="m25.5636 24.6692 3.8016 1.8191" stroke="url(#Q)" stroke-linecap="round" stroke-miterlimit="10" stroke-width="1.2"/><g filter="url(#k)"><path d="m25.4984 24.5491 3.8016 1.8191" stroke="#ff8485" stroke-linecap="round" stroke-miterlimit="10" stroke-width=".3"/></g><g filter="url(#l)"><ellipse cx="29.5404" cy="26.3682" fill="#ffdd86" rx=".18384" ry=".165827" transform="matrix(.88049307 .47405901 -.47405901 .88049307 16.030365 -10.85271)"/></g><path d="m6.5281 24.681-3.80156 1.819" stroke="url(#R)" stroke-linecap="round" stroke-miterlimit="10" stroke-width="1.2"/><g filter="url(#m)"><path d="m6.59334 24.5608-3.80155 1.8191" stroke="#ff8485" stroke-linecap="round" stroke-miterlimit="10" stroke-width=".3"/></g><g filter="url(#n)"><ellipse fill="#ffdd86" rx=".18384" ry=".165827" transform="matrix(-.942776 -.333427 -.333427 .942776 6.64614 24.5049)"/></g><path d="m6.53973 22.5243-3.81358-1.7937" stroke="url(#S)" stroke-linecap="round" stroke-miterlimit="10" stroke-width="1.2"/><g filter="url(#o)"><path d="m6.67403 22.4988-3.81357-1.7937" stroke="#ff8485" stroke-linecap="round" stroke-miterlimit="10" stroke-width=".3"/></g><g filter="url(#p)"><ellipse fill="#ffdd86" rx=".18384" ry=".165827" transform="matrix(-.338111 -.941106 -.941106 .338111 6.75078 22.5043)"/></g><path d="m20.4179 23.0547c0 2.44-1.9819 4.3359-4.4219 4.3359s-4.3125-1.9428-4.3125-4.3828c0 0 1.8047 2.1328 4.3125 0 2.3516 2.0781 4.4219.0469 4.4219.0469z" fill="url(#T)"/><g filter="url(#q)"><path d="m19.4316 20.4682c-.4251 0-.7753-.3431-.7753-.7597v-1.4213c0-.4166.3502-.7597.7753-.7597.4252 0 .7753.3431.7753.7597v1.4213c0 .4288-.3501.7597-.7753.7597z" fill="url(#U)"/></g><path d="m19.9707 20.086c-.4252 0-.7753-.3431-.7753-.7597v-1.4213c0-.4166.3501-.7597.7753-.7597s.7753.3431.7753.7597v1.4213c0 .4288-.3501.7597-.7753.7597z" fill="url(#W)"/><path d="m19.9707 20.086c-.4252 0-.7753-.3431-.7753-.7597v-1.4213c0-.4166.3501-.7597.7753-.7597s.7753.3431.7753.7597v1.4213c0 .4288-.3501.7597-.7753.7597z" fill="url(#Y)"/><g filter="url(#r)"><path d="m11.6054 20.4682c-.4252 0-.7753-.3431-.7753-.7597v-1.4213c0-.4166.3501-.7597.7753-.7597s.7753.3431.7753.7597v1.4213c0 .4288-.3501.7597-.7753.7597z" fill="url(#Z)"/></g><path d="m12.029 20.086c-.4252 0-.7753-.3431-.7753-.7597v-1.4213c0-.4166.3501-.7597.7753-.7597.4251 0 .7753.3431.7753.7597v1.4213c0 .4288-.3502.7597-.7753.7597z" fill="url(#aa)"/><path d="m12.029 20.086c-.4252 0-.7753-.3431-.7753-.7597v-1.4213c0-.4166.3501-.7597.7753-.7597.4251 0 .7753.3431.7753.7597v1.4213c0 .4288-.3502.7597-.7753.7597z" fill="url(#ab)"/><g filter="url(#s)"><circle cx="20.2069" cy="17.7638" fill="#775b70" r=".236228"/></g><g filter="url(#t)"><circle cx="12.2652" cy="17.7638" fill="#775b70" r=".236228"/></g><g filter="url(#u)"><path d="m22.1024 10.1016h4.5851v14.1857h-4.5851z" fill="url(#ac)"/></g><path d="m25.8329 13.5034-2.8-2.6c-.32-.3-.32-.78 0-1.06996l3.0147-2.67718c.3828-.33594 1.1753-.22656 1.1753.60718v5.19996c0 .8335-.88 1.02-1.39.54z" fill="#ffb915"/><path d="m25.8329 13.5034-2.8-2.6c-.32-.3-.32-.78 0-1.06996l3.0147-2.67718c.3828-.33594 1.1753-.22656 1.1753.60718v5.19996c0 .8335-.88 1.02-1.39.54z" fill="url(#ad)"/><g filter="url(#v)"><path d="m26.6336 7.36719-3.625 3.12501 3.5469 2.8125z" fill="url(#ae)"/></g><g filter="url(#w)"><path d="m23.7274 10.2891 2.5312 2.7343" stroke="url(#af)" stroke-linecap="round" stroke-width=".5"/></g><g filter="url(#x)"><path d="m5.22321 7.49927v5.90773l3.46875-3.0894z" fill="#feb33e"/></g><g filter="url(#y)"><path d="m5.22321 7.72656v5.18754" stroke="#ffe7a3" stroke-linecap="round" stroke-width=".15"/></g></svg>