<svg height="96" width="96" xmlns="http://www.w3.org/2000/svg" xmlns:xlink="http://www.w3.org/1999/xlink"><linearGradient id="a"><stop offset="0" stop-color="#fefefe"/><stop offset="1" stop-color="#fefefe" stop-opacity="0"/></linearGradient><linearGradient id="b" gradientUnits="userSpaceOnUse" x1="36.357143" x2="36.357143" xlink:href="#a" y1="6" y2="63.893143"/><filter id="c" color-interpolation-filters="sRGB" height="1.384" width="1.384" x="-.192" y="-.192"><feGaussianBlur stdDeviation="5.28"/></filter><radialGradient id="d" cx="48" cy="90.171875" gradientTransform="matrix(1.1573129 0 0 .99590774 -7.551021 .197132)" gradientUnits="userSpaceOnUse" r="42"><stop offset="0" stop-color="#8e2710"/><stop offset="1" stop-color="#dd7b32"/></radialGradient><clipPath id="e"><rect height="84" rx="6" width="84" x="6" y="6"/></clipPath><linearGradient id="f" gradientUnits="userSpaceOnUse" x1="48" x2="48" y1="90" y2="5.987717"><stop offset="0" stop-color="#bc5f3d"/><stop offset="1" stop-color="#f88a41"/></linearGradient><linearGradient id="g" gradientTransform="matrix(1.0058652 0 0 .994169 100 0)" gradientUnits="userSpaceOnUse" x1="45.447727" x2="45.447727" y1="92.539597" y2="7.01654"><stop offset="0"/><stop offset="1" stop-opacity=".588235"/></linearGradient><linearGradient id="h" gradientTransform="matrix(1.0238095 0 0 1.0119048 -1.142857 -98.071429)" gradientUnits="userSpaceOnUse" x1="32.251034" x2="32.251034" xlink:href="#g" y1="6.131708" y2="90.238609"/><linearGradient id="i" gradientTransform="translate(0 -97)" gradientUnits="userSpaceOnUse" x1="32.251034" x2="32.251034" xlink:href="#g" y1="6.131708" y2="90.238609"/><linearGradient id="j" gradientUnits="userSpaceOnUse" x1="48" x2="48" xlink:href="#a" y1="20.220806" y2="138.66119"/><filter id="k"><feGaussianBlur stdDeviation=".38947367"/></filter><radialGradient id="l" cx="150.76479" cy="589.79974" fx="137.58029" fy="521.71661" gradientTransform="matrix(1 0 0 1.0210791 0 -12.432448)" gradientUnits="userSpaceOnUse" r="96.33165"><stop offset="0" stop-color="#ca792b"/><stop offset="1" stop-color="#622915"/></radialGradient><linearGradient id="m" gradientUnits="userSpaceOnUse" x1="-1.17643378684" x2="14.70243418542" y1="52.77737228208" y2="74.76352421139"><stop offset="0" stop-color="#d9a145"/><stop offset="1" stop-color="#6b331c" stop-opacity="0"/></linearGradient><linearGradient id="n" gradientUnits="userSpaceOnUse" x1="325.09213" x2="340.59402" xlink:href="#o" y1="553.5791" y2="553.5791"/><linearGradient id="o"><stop offset="0" stop-color="#fefefe" stop-opacity=".770909"/><stop offset=".5" stop-color="#fefefe" stop-opacity=".334545"/><stop offset="1" stop-color="#fefefe" stop-opacity=".196364"/></linearGradient><linearGradient id="p" gradientUnits="userSpaceOnUse" x1="334.01904" x2="341.72147" xlink:href="#o" y1="624.96216" y2="624.96216"/><linearGradient id="q" gradientUnits="userSpaceOnUse" x1="370.76263" x2="382.30228" xlink:href="#o" y1="515.48956" y2="515.48956"/><linearGradient id="r" gradientUnits="userSpaceOnUse" x1="363.81903" x2="378.51163" xlink:href="#o" y1="617.62976" y2="617.62976"/><linearGradient id="s" gradientUnits="userSpaceOnUse" x1="420.42398" x2="432.61298" xlink:href="#o" y1="546.15906" y2="546.15906"/><linearGradient id="t" gradientUnits="userSpaceOnUse" x1="428.91235" x2="442.65857" xlink:href="#o" y1="526.58765" y2="526.58765"/><linearGradient id="u" gradientUnits="userSpaceOnUse" x1="413.26404" x2="423.96841" xlink:href="#o" y1="615.08453" y2="615.08453"/><linearGradient id="v" gradientUnits="userSpaceOnUse" x1="494.4227" x2="506.04391" xlink:href="#o" y1="525.18286" y2="525.18286"/><linearGradient id="w" gradientUnits="userSpaceOnUse" x1="479.78738" x2="483.61481" xlink:href="#o" y1="635.82928" y2="635.82928"/><linearGradient id="x" gradientUnits="userSpaceOnUse" x1="513.08533" x2="524.66235" xlink:href="#o" y1="621.65179" y2="621.65179"/><filter id="y"><feGaussianBlur stdDeviation=".91484375"/></filter><g><g fill="url(#h)"><path d="m12-95.03125c-5.5110903 0-10.03125 4.52016-10.03125 10.03125v71c0 5.5110902 4.5201598 10.03125 10.03125 10.03125h72c5.51109 0 10.03125-4.5201597 10.03125-10.03125v-71c0-5.51109-4.52016-10.03125-10.03125-10.03125z" opacity=".08" transform="scale(1 -1)"/><path d="m12-94.03125c-4.971633 0-9.03125 4.059617-9.03125 9.03125v71c0 4.9716329 4.0596171 9.03125 9.03125 9.03125h72c4.971633 0 9.03125-4.059617 9.03125-9.03125v-71c0-4.971633-4.059617-9.03125-9.03125-9.03125z" opacity=".1" transform="scale(1 -1)"/><path d="m12-93c-4.4091333 0-8 3.590867-8 8v71c0 4.4091333 3.5908667 8 8 8h72c4.409133 0 8-3.5908667 8-8v-71c0-4.409133-3.590867-8-8-8z" opacity=".2" transform="scale(1 -1)"/><rect height="85" opacity=".3" rx="7" transform="scale(1 -1)" width="86" x="5" y="-92"/></g><rect fill="url(#i)" height="84" opacity=".45" rx="6" transform="scale(1 -1)" width="84" x="6" y="-91"/></g><rect fill="url(#f)" height="84" rx="6" width="84" x="6" y="6"/><path d="m12 90c-3.324 0-6-2.676-6-6v-2-68-2c0-.334721.04135-.6507.09375-.96875.0487-.295596.09704-.596915.1875-.875.00988-.03038.020892-.0636.03125-.09375.098865-.287771.2348802-.547452.375-.8125.1445918-.273507.3156161-.535615.5-.78125s.3737765-.473472.59375-.6875c.439947-.428056.94291-.814526 1.5-1.09375.278545-.139612.5734731-.246947.875-.34375-.2562018.100222-.4867109.236272-.71875.375-.00741.0044-.023866-.0045-.03125 0-.031933.0193-.062293.04251-.09375.0625-.120395.0767-.2310226.163513-.34375.25-.1061728.0808-.2132809.161112-.3125.25-.1779299.161433-.3474596.345388-.5.53125-.1075789.130255-.2183939.265285-.3125.40625-.025089.03838-.038446.08587-.0625.125-.064763.103032-.1302275.204517-.1875.3125-.1010083.194706-.2056748.415701-.28125.625-.00796.02181-.023589.04055-.03125.0625-.0318251.09195-.0358045.186831-.0625.28125-.0303323.106618-.0703894.203031-.09375.3125-.0728786.341512-.125.698205-.125 1.0625v2 68 2c0 2.781848 2.2181517 5 5 5h2 68 2c2.781848 0 5-2.218152 5-5v-2-68-2c0-.364295-.05212-.720988-.125-1.0625-.04415-.206893-.08838-.397658-.15625-.59375-.0077-.02195-.0233-.04069-.03125-.0625-.06274-.173739-.138383-.367449-.21875-.53125-.04158-.0828-.07904-.169954-.125-.25-.0546-.09721-.126774-.18835-.1875-.28125-.09411-.140965-.204921-.275995-.3125-.40625-.143174-.17445-.303141-.346998-.46875-.5-.01117-.0102-.01998-.02115-.03125-.03125-.138386-.125556-.285091-.234436-.4375-.34375-.102571-.07315-.204318-.153364-.3125-.21875-.0074-.0045-.02384.0044-.03125 0-.232039-.138728-.462548-.274778-.71875-.375.301527.0968.596455.204138.875.34375.55709.279224 1.060053.665694 1.5 1.09375.219973.214028.409366.441865.59375.6875s.355408.507743.5.78125c.14012.265048.276135.524729.375.8125.01041.03078.02133.06274.03125.09375.09046.278085.1388.579404.1875.875.0524.31805.09375.634029.09375.96875v2 68 2c0 3.324-2.676 6-6 6z" fill="url(#d)" opacity=".2"/><path d="m12 6c-3.324 0-6 2.676-6 6v2 68 2c0 .334721.04135.6507.09375.96875.0487.295596.09704.596915.1875.875.00988.03038.020892.0636.03125.09375.098865.287771.2348802.547452.375.8125.1445918.273507.3156161.535615.5.78125s.3737765.473472.59375.6875c.439947.428056.94291.814526 1.5 1.09375.278545.139612.5734731.246947.875.34375-.2562018-.100222-.4867109-.236272-.71875-.375-.00741-.0044-.023866.0045-.03125 0-.031933-.0193-.062293-.04251-.09375-.0625-.120395-.0767-.2310226-.163513-.34375-.25-.1061728-.0808-.2132809-.161112-.3125-.25-.1779299-.161433-.3474596-.345388-.5-.53125-.1075789-.130255-.2183939-.265285-.3125-.40625-.025089-.03838-.038446-.08587-.0625-.125-.064763-.103032-.1302275-.204517-.1875-.3125-.1010083-.194706-.2056748-.415701-.28125-.625-.00796-.02181-.023589-.04055-.03125-.0625-.0318251-.09195-.0358045-.186831-.0625-.28125-.0303323-.106618-.0703894-.203031-.09375-.3125-.0728786-.341512-.125-.698205-.125-1.0625v-2-68-2c0-2.781848 2.2181517-5 5-5h2 68 2c2.781848 0 5 2.218152 5 5v2 68 2c0 .364295-.05212.720988-.125 1.0625-.04415.206893-.08838.397658-.15625.59375-.0077.02195-.0233.04069-.03125.0625-.06274.173739-.138383.367449-.21875.53125-.04158.0828-.07904.169954-.125.25-.0546.09721-.126774.18835-.1875.28125-.09411.140965-.204921.275995-.3125.40625-.143174.17445-.303141.346998-.46875.5-.01117.0102-.01998.02115-.03125.03125-.138386.125556-.285091.234436-.4375.34375-.102571.07315-.204318.153364-.3125.21875-.0074.0045-.02384-.0044-.03125 0-.232039.138728-.462548.274778-.71875.375.301527-.0968.596455-.204138.875-.34375.55709-.279224 1.060053-.665694 1.5-1.09375.219973-.214028.409366-.441865.59375-.6875s.355408-.507743.5-.78125c.14012-.265048.276135-.524729.375-.8125.01041-.03078.02133-.06274.03125-.09375.09046-.278085.1388-.579404.1875-.875.0524-.31805.09375-.634029.09375-.96875v-2-68-2c0-3.324-2.676-6-6-6z" fill="url(#b)" opacity=".35"/><rect height="66" rx="12" style="stroke:#fefefe;stroke-width:.5;stroke-linecap:round;clip-path:url(#e);fill:url(#j);filter:url(#c);opacity:.09216" width="66" x="15" y="15"/><g fill-rule="evenodd"><path d="m117.50256 491.4375-1.75782.27277-7.54651 5.24315 6.09176-.87891h10.18325c-.00001 0-1.74169-2.03059-3.48534-2.03059s-3.48534-2.60642-3.48534-2.60642zm60.73577 1.42444-2.03059 3.21257-3.21257 3.18226-2.03059.60615 3.48534.8486 3.21257-5.51592zm-74.40434 8.15266-7.546515 6.39483 1.151676.87891 2.030587-2.9095 5.243162.87891zm49.40084 0-4.33394 2.03058-5.54623 1.45475h-9.88017l3.21257 2.33366 4.94009-.57584s2.90046-.5883 5.51592-.87891c2.61547-.29061 4.06118-1.75782 4.06117-1.75782zm-23.82151 1.72751-4.06117 2.06089-2.60643 2.60643-2.9095.27277-3.48533 4.09148-4.66732-.30308-2.33366-4.36424c-.00001 0-2.03059-4.93838-2.03059-3.48534-.00001 1.45304 1.75782 5.24316 1.75782 5.24316l.87891 2.60642-1.75782 2.9095-2.9095 2.60643-3.48533-1.45475-2.030589-.84861.303069 4.63702-2.333656 1.45474.575838 2.33366 4.061178-.60614 2.33366-2.30335.57583-1.75782 4.36425-4.63702 1.45475-.57583 8.72849-1.75783 1.15168-2.03058 2.33366-.87891zm5.51592 12.78967-8.69818 2.63673-1.45475 3.18226 2.60642 1.45475 4.06118-2.60642 3.7884-2.9095zm-70.615932 5.54623-1.727514 5.51592s-1.158775 3.20184-2.030587 4.36425c-.871821 1.16243-4.091481 3.18227-4.091481 3.18226l-1.454749 4.36425-.575838 8.12234 1.181983-1.45474s.557994-4.05043.848604-5.21285c.290601-1.16244 1.454749-4.36423 1.454749-4.36425l3.21257-3.78841 1.454749-4.06117 1.727514-2.33366zm154.324602 6.09176-2.90949.30307 1.15167 2.87919 2.63674.30307zm-47.37025.57584-.57584 4.06117 4.06117 2.63673 3.18226 2.03059-3.18226-4.66732zm-40.70266 1.45475 5.54623 6.97067 1.15167 4.66732.30307-5.54623-3.21257-4.06118zm63.94833 2.33365 2.33366 3.18227 4.63701.87891-2.33366-2.9095zm-20.63925 6.39484-2.9095.27276 1.75782 4.36425 1.45475 2.9095 1.72752-4.06118zm26.15517 0v3.18226l3.78841-.87891v-1.45475zm6.39484 3.7581-2.9095.60614 2.9095 3.48534 4.94008 3.48534 1.75782-.30308zm-81.07194 10.75908-.87891 4.06117 8.42542 3.78841 7.27374 2.33366 4.06117 4.36425 7.54651-2.0609-4.33394-1.15167-7.00098-3.78841zm90.07319 18.03282-1.72751 4.33394.87891 6.12207-1.45475 5.51592 4.06118.87891-.57584-6.6979zm-122.6232 20.60895-2.909498 4.09148 4.364246 2.90949 2.030587-2.06089-1.151676-4.63701zm124.38103.60614-2.03059.8486-3.21257 3.21257-.87891 5.21285h2.33366zm-20.94233 1.15168-4.94008 4.63701 1.45475 3.48533 5.24316 5.819.57583 7.27374 4.06118-2.33366-.84861-7.24343-3.21257-3.51565-2.33366-3.7581zm50.8556 1.75782-4.33394 2.30335 1.15168 4.06117zm-158.658547 6.36452-2.33366 3.21257-3.182263 4.36425-3.21257 2.9095-2.303352 2.9095 3.758101 2.03058 1.454749 1.72752 3.21257-2.60643-1.181983-4.06117-.272766-3.78841zm36.611177 7.57682-1.45475.27277-3.48533 2.03058.87891 1.45475-1.15168 3.78841 7.54651-2.60642-4.63701-.57584zm-8.42542 7.24344-.87891 2.33366v5.24316l.60615 4.36424 2.30335 4.33394 2.33366 4.66732 3.48534 3.48534v3.48533l2.90949 5.24316 2.33366 1.45475v-3.21257l-3.48533-4.06118.27276-4.94008 4.94009-1.18198 7.54651 2.63673-1.15168-3.21257-3.18226-.57584-3.21257-.87891.87891-1.45475-2.9095 1.75782-3.48534 3.18226-2.03058-1.45474-.87891-2.03059-2.60643-3.18226-1.18198-2.60643-1.42444-3.51564v-3.7581zm114.80393 2.33366-11.91075 10.45601 11.33491-5.78869.27277 4.94008 3.78841 4.63701 3.18226 3.78841-3.7581-7.84958-.60615-2.63673zm-89.52767 20.94232-.8486 2.87919c.00001 0 .27447 4.38747 1.72751 3.51564 1.45303-.87182 9.88017-2.63673 9.88017-2.63673l-.27276-2.03059-6.39484.57584zm48.82501 9.27402-4.94008 4.94009-1.72752 2.9095-1.75782 2.90949-3.48533 2.9095-2.9095 2.60643.87891 1.18198 6.09176-4.09148 2.63673-3.48534 2.60643-5.51592zm29.94358 3.21257-3.78841 3.78841-7.84958 4.94009 7.57682-3.51565 6.39483-4.63701zm-23.54874 14.82026 2.63673 4.06117 4.06117.87891 1.72752-1.75782h-3.75811zm-26.42794 9.30433-2.63673 3.48533-2.9095 2.60643-4.63701 1.15168 2.90949.60614 3.48534 2.9095 3.48534 1.72751-.57584-1.45475-.57584-1.72751.57584-2.9095 2.03058-2.63673-4.63701 3.21257 2.60643-3.78841z" fill="url(#l)" filter="url(#k)" opacity=".087" transform="matrix(.34738699 0 0 .34738699 -4.51471 -157.0305)"/><path d="m117.50256 491.4375-1.75782.27277-7.54651 5.24315 6.09176-.87891h10.18325c-.00001 0-1.74169-2.03059-3.48534-2.03059s-3.48534-2.60642-3.48534-2.60642zm60.73577 1.42444-2.03059 3.21257-3.21257 3.18226-2.03059.60615 3.48534.8486 3.21257-5.51592zm-74.40434 8.15266-7.546515 6.39483 1.151676.87891 2.030587-2.9095 5.243162.87891zm49.40084 0-4.33394 2.03058-5.54623 1.45475h-9.88017l3.21257 2.33366 4.94009-.57584s2.90046-.5883 5.51592-.87891c2.61547-.29061 4.06118-1.75782 4.06117-1.75782zm-23.82151 1.72751-4.06117 2.06089-2.60643 2.60643-2.9095.27277-3.48533 4.09148-4.66732-.30308-2.33366-4.36424c-.00001 0-2.03059-4.93838-2.03059-3.48534-.00001 1.45304 1.75782 5.24316 1.75782 5.24316l.87891 2.60642-1.75782 2.9095-2.9095 2.60643-3.48533-1.45475-2.030589-.84861.303069 4.63702-2.333656 1.45474.575838 2.33366 4.061178-.60614 2.33366-2.30335.57583-1.75782 4.36425-4.63702 1.45475-.57583 8.72849-1.75783 1.15168-2.03058 2.33366-.87891zm5.51592 12.78967-8.69818 2.63673-1.45475 3.18226 2.60642 1.45475 4.06118-2.60642 3.7884-2.9095zm-70.615932 5.54623-1.727514 5.51592s-1.158775 3.20184-2.030587 4.36425c-.871821 1.16243-4.091481 3.18227-4.091481 3.18226l-1.454749 4.36425-.575838 8.12234 1.181983-1.45474s.557994-4.05043.848604-5.21285c.290601-1.16244 1.454749-4.36423 1.454749-4.36425l3.21257-3.78841 1.454749-4.06117 1.727514-2.33366zm154.324602 6.09176-2.90949.30307 1.15167 2.87919 2.63674.30307zm-47.37025.57584-.57584 4.06117 4.06117 2.63673 3.18226 2.03059-3.18226-4.66732zm-40.70266 1.45475 5.54623 6.97067 1.15167 4.66732.30307-5.54623-3.21257-4.06118zm63.94833 2.33365 2.33366 3.18227 4.63701.87891-2.33366-2.9095zm-20.63925 6.39484-2.9095.27276 1.75782 4.36425 1.45475 2.9095 1.72752-4.06118zm26.15517 0v3.18226l3.78841-.87891v-1.45475zm6.39484 3.7581-2.9095.60614 2.9095 3.48534 4.94008 3.48534 1.75782-.30308zm-81.07194 10.75908-.87891 4.06117 8.42542 3.78841 7.27374 2.33366 4.06117 4.36425 7.54651-2.0609-4.33394-1.15167-7.00098-3.78841zm90.07319 18.03282-1.72751 4.33394.87891 6.12207-1.45475 5.51592 4.06118.87891-.57584-6.6979zm-122.6232 20.60895-2.909498 4.09148 4.364246 2.90949 2.030587-2.06089-1.151676-4.63701zm124.38103.60614-2.03059.8486-3.21257 3.21257-.87891 5.21285h2.33366zm-20.94233 1.15168-4.94008 4.63701 1.45475 3.48533 5.24316 5.819.57583 7.27374 4.06118-2.33366-.84861-7.24343-3.21257-3.51565-2.33366-3.7581zm50.8556 1.75782-4.33394 2.30335 1.15168 4.06117zm-158.658547 6.36452-2.33366 3.21257-3.182263 4.36425-3.21257 2.9095-2.303352 2.9095 3.758101 2.03058 1.454749 1.72752 3.21257-2.60643-1.181983-4.06117-.272766-3.78841zm36.611177 7.57682-1.45475.27277-3.48533 2.03058.87891 1.45475-1.15168 3.78841 7.54651-2.60642-4.63701-.57584zm-8.42542 7.24344-.87891 2.33366v5.24316l.60615 4.36424 2.30335 4.33394 2.33366 4.66732 3.48534 3.48534v3.48533l2.90949 5.24316 2.33366 1.45475v-3.21257l-3.48533-4.06118.27276-4.94008 4.94009-1.18198 7.54651 2.63673-1.15168-3.21257-3.18226-.57584-3.21257-.87891.87891-1.45475-2.9095 1.75782-3.48534 3.18226-2.03058-1.45474-.87891-2.03059-2.60643-3.18226-1.18198-2.60643-1.42444-3.51564v-3.7581zm114.80393 2.33366-11.91075 10.45601 11.33491-5.78869.27277 4.94008 3.78841 4.63701 3.18226 3.78841-3.7581-7.84958-.60615-2.63673zm-89.52767 20.94232-.8486 2.87919c.00001 0 .27447 4.38747 1.72751 3.51564 1.45303-.87182 9.88017-2.63673 9.88017-2.63673l-.27276-2.03059-6.39484.57584zm48.82501 9.27402-4.94008 4.94009-1.72752 2.9095-1.75782 2.90949-3.48533 2.9095-2.9095 2.60643.87891 1.18198 6.09176-4.09148 2.63673-3.48534 2.60643-5.51592zm29.94358 3.21257-3.78841 3.78841-7.84958 4.94009 7.57682-3.51565 6.39483-4.63701zm-23.54874 14.82026 2.63673 4.06117 4.06117.87891 1.72752-1.75782h-3.75811zm-26.42794 9.30433-2.63673 3.48533-2.9095 2.60643-4.63701 1.15168 2.90949.60614 3.48534 2.9095 3.48534 1.72751-.57584-1.45475-.57584-1.72751.57584-2.9095 2.03058-2.63673-4.63701 3.21257 2.60643-3.78841z" fill="url(#l)" filter="url(#k)" opacity=".087" transform="matrix(.08991035 .33555005 -.33555005 .08991035 232.19998 -55.745575)"/><path d="m178.15974 492.875-.4375.6875-.15625.625-3.21875 5.53125-1.65625-.40625-1.8125.5625 3.46875.84375 3.21875-5.53125zm-63.96875 2.1875-4.25.625-1.84375 1.28125 6.09375-.90625h10.1875c-.00001-.00001-.44037-.49235-1.09375-1zm38.9375 5.9375-1.21875.5625-.8125 1.0625c.00001 0-1.44703 1.45938-4.0625 1.75-2.61546.29061-5.49999.875-5.5.875l-4.9375.59375-1.84375-1.34375h-1.375l3.21875 2.34375 4.9375-.59375c.00001 0 2.88454-.58439 5.5-.875 2.61547-.29062 4.06251-1.75 4.0625-1.75zm-23.8125 1.75-2.25 1.125-3.84375 3.6875-2.3125.875-1.15625 2.03125-2.875.5625-.625.75-2.28125-.15625-2.96875.59375-1.4375.59375-1.4375 1.53125-.0312.0312-.0625.0625-2.84375 3-.5625 1.75-2.34375 2.3125-4.062503.59375-.34375-1.4375-.21875.125.5625 2.3125 4.062503-.59375 2.34375-2.3125.5625-1.75 4.375-4.625 1.4375-.59375 8.75-1.75 1.15625-2.03125 2.3125-.875zm-22 .59375c-.0555.004-.0937.0996-.0937.28125 0 1.45303 1.75 5.25 1.75 5.25l.6875 1.96875.21875-.375-.90625-2.59375s-1.25352-2.78865-1.625-4.5c-.0124-.005-.0206-.032-.0312-.0312zm-7.625 1.09375-.875003.75-1.46875 2.09375-.53125-.40625-.625.53125 1.15625.875 2.031253-2.90625 5.25.875-.15625-1.03125zm0 10.25.21875 3.65625.0625-.0312-.21875-3.59375zm35.28125 1.71875-3.625 2.78125-4.0625 2.625-2.25-1.25-.34375.78125 2.59375 1.46875 4.0625-2.625 3.78125-2.90625zm-70.750003 8-1.71875 2.34375-1.46875 4.0625-3.21875 3.78125c0 .00002-1.14689 3.21259-1.4375 4.375-.29061 1.16242-.84375 5.21874-.84375 5.21875l-1.125 1.34375-.0625 1.09375 1.1875-1.4375c0-.00001.55314-4.05633.84375-5.21875.29061-1.16241 1.4375-4.37498 1.4375-4.375l3.21875-3.78125 1.46875-4.0625 1.71875-2.34375zm151.781253 3.03125-.375.0312 1.15625 2.875 2.625.3125-.25-1.03125-2.375-.28125zm-85.53125 1.75 5.53125 6.96875 1.15625 4.6875.3125-5.5625-.0625-.0625-.25 4.625-1.15625-4.6875-4.15625-5.21875zm40.25 1.71875-.125.90625 4.0625 2.625 3.1875 2.03125-1.21875-1.78125-1.96875-1.25zm23.6875.625 2.34375 3.1875 4.625.875-.9375-1.1875-3.6875-.6875-1.4375-1.96875zm-23.15625 6.625-.375.0312 1.75 4.375 1.46875 2.90625 1.71875-4.0625-.25-.40625-1.46875 3.46875-1.46875-2.90625zm32.46875 1.0625-3.78125.90625v1l3.78125-.90625zm.40625 2.90625-.71875.15625 2.90625 3.5 4.96875 3.46875 1.75-.28125-.8125-.875-.9375.15625-4.96875-3.46875zm-79.5625 13.46875-.1875.90625 8.4375 3.78125 7.25 2.34375 4.0625 4.375 7.5625-2.0625-1.84375-.5-5.71875 1.5625-4.0625-4.375-7.25-2.34375zm89.125 18.96875-.0937.25.78125 5.46875.0937-.34375zm-.40625 10.9375-.25.9375 4.0625.90625-.0937-1.03125zm3.8125 6.1875-.5.21875-3.28125 8.0625h-2.1875l-.15625 1h2.34375zm-126.812503 2.8125-.5.6875 4.375 2.90625 2.03125-2.0625-.1875-.8125-1.84375 1.875zm156.718753.0937-.6875.375-2.5 5-.90625-3.1875-.25.125 1.15625 4.0625zm-55.5 2.59375-.28125.28125 1.4375 3.5 5.25 5.8125.5625 7.28125 4.0625-2.34375-.0937-.9375-3.96875 2.28125-.5625-7.28125-5.25-5.8125zm-103.156253 3.78125-2.34375 3.21875-1.28125 1.71875-.4375.75.0625.90625zm36.593753 7.5625-.59375.125-1.6875 3.25.5.0625zm-4.46875 2.0625-.46875.25.6875 1.125.21875-.65625zm4.6875 2.625-5.0625 1.75-.34375 1.125 7.53125-2.59375zm-47.281253.46875-.5625.6875 3.75 2.03125 1.46875 1.71875 3.21875-2.625-.25-.8125-2.96875 2.4375-1.46875-1.71875zm152.875003 8.09375-8.59375 4.375-2.75 2.40625 11.34375-5.78125.28125 4.9375 3.78125 4.65625 3.1875 3.78125-1.09375-2.3125-2.09375-2.46875-3.78125-4.65625zm-115.09375.5938v1l.59375 4.34375 2.3125 4.34375 2.34375 4.65625 3.46875 3.5v-1l-3.46875-3.5-2.34375-4.65625-2.3125-4.34375zm16.5625 11.15625-.78125.46875.4375.125zm-.875 2.46875-3.8125.90625-1.15625 1.09375-.25 4.125.0625.0625.21875-4 4.9375-1.1875 7.5625 2.625-.40625-1.15625zm9.6875 5.6875-.0625.25c.00002-.00003.26571 4.40308 1.71875 3.53125 1.45304-.87184 9.875-2.65625 9.875-2.65625l-.125-.96875c-.23375.0491-8.31768 1.76559-9.75 2.625-1.07283.6437-1.50449-1.57364-1.65625-2.78125zm-16.65625 1v1l2.90625 5.25 2.34375 1.46875v-1l-2.34375-1.46875zm66.25 5.65625-1.46875 1.46875-1.125 1.875-2.625 5.53125-2.625 3.5-6.09375 4.0625-.4375-.5625-.4375.40625.875 1.15625 6.09375-4.0625 2.625-3.5 2.625-5.53125zm31.25 3.53125-5.375 3.875-1.40625.65625-6.15625 3.875 7.5625-3.53125 6.40625-4.625zm-24.84375 14.5 2.625 4.0625 4.0625.875 1.71875-1.75h-.96875l-.75.75-4.0625-.875-1.46875-2.28125zm-26.4375 9.3125-.4375.5625-.4375 1.59375-2.59375 3.8125 1.28125-.90625 1.3125-1.90625zm1.15625 3.75-1.6875 1.15625-.34375.46875-.59375 2.90625.125.375.46875-2.28125zm-9.15625 2.9375-2.1875.53125 2.90625.625 3.5 2.90625 3.46875 1.71875-.5-1.25-2.96875-1.46875-3.5-2.90625z" fill="#e7e18c" filter="url(#k)" opacity=".087" transform="matrix(.08991035 .33555005 -.33555005 .08991035 232.19998 -55.745575)"/><path d="m51.190442 13.996258-5.031675 1.066842-.764305-.605075-.620998 3.503065-.445845 1.385303.907613 2.73876 2.89799 2.133685 6.416977.923535 2.595453-2.292915 2.595453-.907612-4.729138-5.047598zm-33.740884 13.136493-1.671912.302538-3.216455 2.133684-.143307 3.662296-2.292916 3.518987 2.89799-.764305 4.124068-.461767.764305-2.436223 4.888363-1.990377-1.226068-1.528611zm60.762252 3.662295-2.133685.461768-3.964832.445844-2.452146 1.990378.620998 3.200528 3.805602 3.359757 4.888368 1.52861 4.58583.923536 1.226073-1.528611-1.68784-2.452145-2.595453-2.133685-.302537-3.05722.764305-1.21015zm-51.909051 9.458275-4.26737 3.359758-2.452146 3.359757-1.831147 4.283293 1.226073 2.73876 3.05722-.907612h3.662295l2.73876-.302538.923535-3.678218.923535-3.964832-1.226073-2.73876zm41.224703 18.789166-1.226072 1.066842-2.89799 1.226073-2.595453 2.133685-.445845 3.200527 1.974455 2.133685 2.292915 1.226073 3.200528 1.831148 1.831147-2.292916 3.216451-2.738759-1.226073-4.124063-.907612-1.36938zm8.248126 2.292915-1.687841 2.73876.461768 3.200527 1.226073 3.359758 2.595452 2.595452 3.359758-2.133684.15923-2.89799-.31846-4.124063-1.21015-1.226073-3.821525-1.36938zm-43.055852 3.343835-4.124062 2.149608-2.595453.302537-3.057215 1.52861 1.066837 1.21015.159231 1.68784 1.990377 1.52861 1.974455.764305 4.124063.605075 1.36938-.907612 2.754682-1.831148.923536-2.595452.302537-3.518988-.620998-.605075-1.974454-.15923z" fill="#6b331c"/><path d="m242.123 763.58376-.3125 1 1.78125 5.375 5.6875 4.1875 12.59375 1.8125 5.09375-4.5 5.09375-1.78125-1.40625-1.5-3.6875 1.28125-5.09375 4.5-12.59375-1.8125-5.6875-4.1875zm-43.78125 22.5625-8.375 3.40625-1.5 4.78125-8.09375.90625-4.125 1.09375-1.5625 2.40625 5.6875-1.5 8.09375-.90625 1.5-4.78125 9.59375-3.90625zm114.4375 3.375-.5625.90625.15625 1.71875 1.34375-2.09375zm-20.90625 2.9375-.34375.28125 1.21875 6.28125 7.46875 6.59375 9.59375 3 9 1.8125 2.40625-3-.75-1.0625-1.65625 2.0625-9-1.8125-9.59375-3-7.46875-6.59375zm-77.9375 22.0625-1.5 6.46875-1.8125 7.21875-5.375.59375h-7.1875l-6 1.78125-1.96875-4.40625-.4375 1.03125 2.40625 5.375 6-1.78125h7.1875l5.375-.59375 1.8125-7.21875 1.8125-7.78125zm86.5 37.46875-.21875.375.90625 6.28125 2.40625 6.59375 5.09375 5.09375 6.59375-4.1875.3125-5.6875-.0625-.84375-.25 4.53125-6.59375 4.1875-5.09375-5.09375-2.40625-6.59375zm-71.96875 3.21875-.4375 5.0625-1.8125 5.09375-5.40625 3.59375-2.6875 1.78125-8.09375-1.1875-3.875-1.5-3.90625-3-.3125-3.3125-.875-1-1.21875.625 2.09375 2.375.3125 3.3125 3.90625 3 3.875 1.5 8.09375 1.1875 2.6875-1.78125 5.40625-3.59375 1.8125-5.09375.59375-6.90625zm45.0625.5-.25 1.75 3.875 4.1875 4.5 2.40625 6.28125 3.59375 3.59375-4.5 6.3125-5.375-.46875-1.59375-5.84375 4.96875-3.59375 4.5-6.28125-3.59375-4.5-2.40625z" fill="#33180d" filter="url(#y)" transform="matrix(.5095367 0 0 .5095367 -78.685835 -370.23709)"/><g transform="matrix(.13187778 .49217466 -.49217466 .13187778 279.52961 -219.16662)"><path d="m326.51609 551.64238-.51292 9.76239c-.0114.1904-.1058.36618-.25824.4808l-.65281.50448 3.21898 1.50957c.17845.024.19018.029.0302.008 4.78703.62692 9.95035-3.56925 11.69143-10.06707 1.0635-3.96906.55177-7.81922-.99576-10.65192l-5.29356 2.85211z" fill="url(#n)"/><path d="m334.28828 622.24728-.26923 2.93663 2.28277 6.69391.79882.27875c1.88248-.9748 3.55664-3.01059 4.27233-5.68158.99804-3.72472-.23838-7.23633-2.55211-8.70723z" fill="url(#p)"/><path d="m372.11122 508.86051-.21219 4.0519c.006.0226.0106.0454.014.0685l-1.15041 7.55338 2.27859 5.13988 2.70324.17434c2.80383-1.3091 5.16311-4.05569 6.12462-7.64405 1.15187-4.29882-.0771-8.56864-2.69422-11.07468l-1.61007-.26965c-.14087-.0231-.27024-.0918-.36814-.1957l-1.3771-1.50133c-.0387-.0148-.0959-.0236-.12074-.0323z" fill="url(#q)"/><path d="m363.81903 612.01033 3.91637 9.16984.0523.0464 5.04913 6.27047.0221.0383.2474.16335c2.19893-1.53671 4.058-4.03654 4.91229-7.22478 1.53977-5.74649-.66231-11.24848-4.72513-12.91295l-4.5301.7273z" fill="url(#r)"/><path d="m420.42399 543.35257 1.16464 2.41497c.025.0657.0392.13509.042.20537l.8463 6.01784.6424 1.46623c4.48965.39334 8.38056-1.69521 9.29608-5.11193.98534-3.67736-1.79962-7.81123-6.47244-9.53121l-.0383.0221z" fill="url(#s)"/><path d="m428.91234 528.57731 3.84996 4.10507 5.80264.6813c1.83926-1.0977 3.26099-2.75239 3.82648-4.86283.76904-2.87011-.16726-5.8057-2.23092-7.97412l-3.75538-.71508-2.63277 1.49451-4.43626 6.41412-.0302-.008z" fill="url(#t)"/><path d="m413.26403 612.09166 1.93816 8.70448c.0269.0858.0357.17633.0259.26575l-.71841 4.85447c3.88885-.31865 7.68361-3.56162 8.99611-8.4599 1.59482-5.95194-1.07936-11.70961-5.77786-12.96856-.44454-.11911-.90495-.20259-1.3605-.23514l-.45928.26517-1.21797 3.45887z" fill="url(#u)"/><path d="m494.42271 522.19 5.44919 5.01887c.0272.026.0521.0543.0744.0846l1.68805 2.39346c2.06186-.73298 3.68643-2.16688 4.22423-4.17392.42294-1.57843.0985-3.18888-.73323-4.62874l-1.82353-.19744-.0302-.008-8.41389 1.33662z" fill="url(#v)"/><path d="m479.78737 635.61056 1.19483 2.42305c1.15761-.38209 2.1881-1.28386 2.55363-2.64805.13185-.49206.0725-.99456.01-1.48557l-1.0263-.275z" fill="url(#w)"/><path d="m513.08535 626.28598c.35106.70803.82844 1.29914 1.36468 1.78917l1.61657-.11683c.27531-.0162.53089.14303.63764.39732l.45379.96275c2.954.31114 6.1062-2.14201 7.16751-6.10286.72182-2.69388.23335-5.29642-.98798-7.05873l-1.02413-.40382c-.0101-.002-.0202-.005-.0302-.008l-3.88897-1.78615c-.20862.0394-.41493.11715-.6323.18645l-.52081 1.21925-3.13671 7.11821-.0243.0906z" fill="url(#x)"/></g><path d="m9.2059018 58.884638-1.832177 5.49653v4.275079l1.221451 4.275079.610726 1.832177.610725-4.885805v-1.832177l-.610725-3.053627z" fill="url(#m)"/></g></svg>