<svg fill="none" height="32" viewBox="0 0 32 32" width="32" xmlns="http://www.w3.org/2000/svg" xmlns:xlink="http://www.w3.org/1999/xlink"><filter id="a" color-interpolation-filters="sRGB" filterUnits="userSpaceOnUse" height="8.72559" width="6.23242" x="21.959" y="14.4951"><feFlood flood-opacity="0" result="BackgroundImageFix"/><feBlend in="SourceGraphic" in2="BackgroundImageFix" mode="normal" result="shape"/><feGaussianBlur result="effect1_foregroundBlur_28327_4875" stdDeviation=".375"/></filter><filter id="b" color-interpolation-filters="sRGB" filterUnits="userSpaceOnUse" height="21.0045" width="14.7854" x="8.571" y="7.55806"><feFlood flood-opacity="0" result="BackgroundImageFix"/><feBlend in="SourceGraphic" in2="BackgroundImageFix" mode="normal" result="shape"/><feGaussianBlur result="effect1_foregroundBlur_28327_4875" stdDeviation=".1"/></filter><filter id="c" color-interpolation-filters="sRGB" filterUnits="userSpaceOnUse" height="20.3045" width="13.8854" x="9.021" y="7.80806"><feFlood flood-opacity="0" result="BackgroundImageFix"/><feBlend in="SourceGraphic" in2="BackgroundImageFix" mode="normal" result="shape"/><feColorMatrix in="SourceAlpha" result="hardAlpha" type="matrix" values="0 0 0 0 0 0 0 0 0 0 0 0 0 0 0 0 0 0 127 0"/><feOffset dy="-.2"/><feGaussianBlur stdDeviation=".25"/><feComposite in2="hardAlpha" k2="-1" k3="1" operator="arithmetic"/><feColorMatrix type="matrix" values="0 0 0 0 0.711813 0 0 0 0 0.656753 0 0 0 0 0.754167 0 0 0 1 0"/><feBlend in2="shape" mode="normal" result="effect1_innerShadow_28327_4875"/></filter><filter id="d" color-interpolation-filters="sRGB" filterUnits="userSpaceOnUse" height="4.62109" width="6.73047" x="12.6348" y="13.5264"><feFlood flood-opacity="0" result="BackgroundImageFix"/><feBlend in="SourceGraphic" in2="BackgroundImageFix" mode="normal" result="shape"/><feGaussianBlur result="effect1_foregroundBlur_28327_4875" stdDeviation=".375"/></filter><filter id="e" color-interpolation-filters="sRGB" filterUnits="userSpaceOnUse" height="2.64062" width="1.90625" x="13.4355" y="9.37012"><feFlood flood-opacity="0" result="BackgroundImageFix"/><feBlend in="SourceGraphic" in2="BackgroundImageFix" mode="normal" result="shape"/><feGaussianBlur result="effect1_foregroundBlur_28327_4875" stdDeviation=".25"/></filter><filter id="f" color-interpolation-filters="sRGB" filterUnits="userSpaceOnUse" height="2.64062" width="1.90625" x="16.4355" y="9.37012"><feFlood flood-opacity="0" result="BackgroundImageFix"/><feBlend in="SourceGraphic" in2="BackgroundImageFix" mode="normal" result="shape"/><feGaussianBlur result="effect1_foregroundBlur_28327_4875" stdDeviation=".25"/></filter><filter id="g" color-interpolation-filters="sRGB" filterUnits="userSpaceOnUse" height="1.99678" width="1.12031" x="17.0512" y="9.61392"><feFlood flood-opacity="0" result="BackgroundImageFix"/><feBlend in="SourceGraphic" in2="BackgroundImageFix" mode="normal" result="shape"/><feGaussianBlur result="effect1_foregroundBlur_28327_4875" stdDeviation=".2"/></filter><filter id="h" color-interpolation-filters="sRGB" filterUnits="userSpaceOnUse" height="1.99678" width="1.12031" x="14.0355" y="9.61392"><feFlood flood-opacity="0" result="BackgroundImageFix"/><feBlend in="SourceGraphic" in2="BackgroundImageFix" mode="normal" result="shape"/><feGaussianBlur result="effect1_foregroundBlur_28327_4875" stdDeviation=".2"/></filter><radialGradient id="i" cx="0" cy="0" gradientTransform="matrix(2.71874908 -5.21875374 2.99445094 1.55998177 6.14645 22.0578)" gradientUnits="userSpaceOnUse" r="1"><stop offset="0" stop-color="#652998"/><stop offset="1" stop-color="#501e65"/></radialGradient><linearGradient id="j"><stop offset="0" stop-color="#462096"/><stop offset="1" stop-color="#462096" stop-opacity="0"/></linearGradient><linearGradient id="k" gradientUnits="userSpaceOnUse" x1="4.95895" x2="7.2402" xlink:href="#j" y1="24.5578" y2="21.3703"/><radialGradient id="l" cx="0" cy="0" gradientTransform="matrix(-4.73432896 5.55750949 -2.30208218 -1.96109685 9.27145 18.9222)" gradientUnits="userSpaceOnUse" r="1"><stop offset=".786291" stop-color="#493659" stop-opacity="0"/><stop offset="1" stop-color="#493659"/></radialGradient><linearGradient id="m" gradientUnits="userSpaceOnUse" x1="25.6438" x2="25.6438" y1="14.5435" y2="23.8655"><stop offset="0" stop-color="#814690"/><stop offset="1" stop-color="#511691"/></linearGradient><linearGradient id="n" gradientUnits="userSpaceOnUse" x1="27.3027" x2="25.244" xlink:href="#j" y1="24.589" y2="22.1927"/><linearGradient id="o" gradientUnits="userSpaceOnUse" x1="28.3169" x2="23.8027" y1="23.3701" y2="15.4951"><stop offset="0" stop-color="#8760b5"/><stop offset="1" stop-color="#8760b5" stop-opacity="0"/></linearGradient><linearGradient id="p" gradientUnits="userSpaceOnUse" x1="15.9751" x2="15.9751" y1="5.80762" y2="29.868"><stop offset="0" stop-color="#57275f"/><stop offset="1" stop-color="#4c20a3"/></linearGradient><radialGradient id="q" cx="0" cy="0" gradientTransform="matrix(-9.50005006 8.43750466 -12.2559636 -13.79937226 21.9902 8.05762)" gradientUnits="userSpaceOnUse" r="1"><stop offset="0" stop-color="#813687"/><stop offset="1" stop-color="#813687" stop-opacity="0"/></radialGradient><radialGradient id="r" cx="0" cy="0" gradientTransform="matrix(0 -5.8125 7.20261 0 15.9751 32.8076)" gradientUnits="userSpaceOnUse" r="1"><stop offset="0" stop-color="#552eaa"/><stop offset="1" stop-color="#552eaa" stop-opacity="0"/></radialGradient><linearGradient id="s"><stop offset="0" stop-color="#884790"/><stop offset="1" stop-color="#884790" stop-opacity="0"/></linearGradient><radialGradient id="t" cx="0" cy="0" gradientTransform="matrix(.79687212 .64062378 -.62072745 .77212306 17.084 8.08887)" gradientUnits="userSpaceOnUse" r="1" xlink:href="#s"/><radialGradient id="u" cx="0" cy="0" gradientTransform="matrix(1.50000013 -1.06249956 1.40213088 1.97947987 20.0527 10.9326)" gradientUnits="userSpaceOnUse" r="1" xlink:href="#s"/><linearGradient id="v" gradientUnits="userSpaceOnUse" x1="15.9637" x2="15.9637" y1="8.00806" y2="28.1126"><stop offset="0" stop-color="#60166f"/><stop offset="1" stop-color="#51309a"/></linearGradient><linearGradient id="w" gradientUnits="userSpaceOnUse" x1="15.9637" x2="15.9637" y1="9.2453" y2="28.1126"><stop offset="0" stop-color="#d4c5df"/><stop offset="1" stop-color="#efc3ff"/></linearGradient><radialGradient id="x" cx="0" cy="0" gradientTransform="matrix(-11.12505396 1.62495292 -1.9406474 -13.28642008 21.8028 15.1828)" gradientUnits="userSpaceOnUse" r="1"><stop offset="0" stop-color="#fff6ff"/><stop offset="1" stop-color="#fff6ff" stop-opacity="0"/></radialGradient><linearGradient id="y" gradientUnits="userSpaceOnUse" x1="18.2402" x2="13.3848" y1="14.5537" y2="16.4287"><stop offset="0" stop-color="#e0b4e2"/><stop offset="1" stop-color="#e0b4e2" stop-opacity="0"/></linearGradient><linearGradient id="z" gradientUnits="userSpaceOnUse" x1="16" x2="16" y1="13.9326" y2="15.0264"><stop offset="0" stop-color="#d9a7e6"/><stop offset="1" stop-color="#d9a7e6" stop-opacity="0"/></linearGradient><linearGradient id="A"><stop offset="0" stop-color="#ffa864"/><stop offset="1" stop-color="#ffa864" stop-opacity="0"/></linearGradient><radialGradient id="B" cx="0" cy="0" gradientTransform="matrix(-2.75 0 0 -2.69572 17.7715 14.5537)" gradientUnits="userSpaceOnUse" r="1" xlink:href="#A"/><radialGradient id="C" cx="0" cy="0" gradientTransform="matrix(-.53124087 1.84961077 -1.8605005 -.53436859 16.3652 11.4014)" gradientUnits="userSpaceOnUse" r="1" xlink:href="#A"/><linearGradient id="D"><stop offset=".136364" stop-color="#ff5762"/><stop offset="1" stop-color="#ff5762" stop-opacity="0"/></linearGradient><linearGradient id="E" gradientUnits="userSpaceOnUse" x1="15.9902" x2="15.9902" xlink:href="#D" y1="14.8076" y2="14.2139"/><linearGradient id="F"><stop offset=".225" stop-color="#594c4f"/><stop offset="1" stop-color="#392833"/></linearGradient><linearGradient id="G" gradientUnits="userSpaceOnUse" x1="14.9434" x2="14.4188" xlink:href="#F" y1="10.5098" y2="10.5098"/><linearGradient id="H"><stop offset="0" stop-color="#492847"/><stop offset="1" stop-color="#552d52" stop-opacity="0"/></linearGradient><linearGradient id="I" gradientUnits="userSpaceOnUse" x1="15.085" x2="15.085" xlink:href="#H" y1="11.3557" y2="10.5741"/><linearGradient id="J"><stop offset=".813951" stop-color="#594c4f" stop-opacity="0"/><stop offset="1" stop-color="#594c4f"/></linearGradient><radialGradient id="K" cx="0" cy="0" gradientTransform="matrix(-.27065863 -.92834644 1.08551588 -.31648125 14.5877 10.7415)" gradientUnits="userSpaceOnUse" r="1" xlink:href="#J"/><linearGradient id="L" gradientUnits="userSpaceOnUse" x1="17.9434" x2="17.4188" xlink:href="#F" y1="10.5098" y2="10.5098"/><linearGradient id="M" gradientUnits="userSpaceOnUse" x1="18.085" x2="18.085" xlink:href="#H" y1="11.3557" y2="10.5741"/><radialGradient id="N" cx="0" cy="0" gradientTransform="matrix(-.27065863 -.92834644 1.08551588 -.31648125 17.5877 10.7415)" gradientUnits="userSpaceOnUse" r="1" xlink:href="#J"/><linearGradient id="O" gradientUnits="userSpaceOnUse" x1="20.0693" x2="20.0693" xlink:href="#D" y1="30.4326" y2="29.0576"/><radialGradient id="P" cx="0" cy="0" gradientTransform="matrix(4.25 0 0 8.69274 17.0215 28.9326)" gradientUnits="userSpaceOnUse" r="1" xlink:href="#D"/><radialGradient id="Q" cx="0" cy="0" gradientTransform="matrix(8.4375 0 0 8.1987 18.6152 28.9326)" gradientUnits="userSpaceOnUse" r="1"><stop offset=".587037" stop-color="#ff5762" stop-opacity="0"/><stop offset="1" stop-color="#ff5762"/></radialGradient><linearGradient id="R"><stop offset="0" stop-color="#f15cc7"/><stop offset=".828473" stop-color="#f15cc7" stop-opacity="0"/></linearGradient><linearGradient id="S" gradientUnits="userSpaceOnUse" x1="20.0693" x2="20.0693" xlink:href="#R" y1="30.1269" y2="29.4357"/><linearGradient id="T" gradientUnits="userSpaceOnUse" x1="11.8845" x2="11.8845" xlink:href="#R" y1="30.1269" y2="29.4357"/><linearGradient id="U" gradientUnits="userSpaceOnUse" x1="16.5215" x2="11.4433" y1="29.4357" y2="29.4357"><stop offset="0" stop-color="#f15cc7"/><stop offset="1" stop-color="#f15cc7" stop-opacity="0"/></linearGradient><path d="m7.58447 23.0746c-1.34108.7225-2.5426 1.0736-3.09937.5168-1.65126-1.6513 2.54181-7.4776 3.91233-9.0479.04137-.1972.08133-.3861.11923-.5647l.00479.0008-.98437 5.0469c-.16477.7921-.30074 2.4448.04739 4.0481z" fill="url(#i)"/><path d="m7.58447 23.0746c-1.34108.7225-2.5426 1.0736-3.09937.5168-1.65126-1.6513 2.54181-7.4776 3.91233-9.0479.04137-.1972.08133-.3861.11923-.5647l.00479.0008-.98437 5.0469c-.16477.7921-.30074 2.4448.04739 4.0481z" fill="url(#k)"/><path d="m7.58447 23.0746c-1.34108.7225-2.5426 1.0736-3.09937.5168-1.65126-1.6513 2.54181-7.4776 3.91233-9.0479.04137-.1972.08133-.3861.11923-.5647l.00479.0008-.98437 5.0469c-.16477.7921-.30074 2.4448.04739 4.0481z" fill="url(#l)"/><path d="m24.3423 23.0746c1.341.7225 2.5426 1.0736 3.0993.5167 1.6513-1.6512-2.6004-7.4775-3.9709-9.0478.0703.3931.7739 3.7391.9189 4.483.1648.7921.3008 2.4448-.0473 4.0481z" fill="url(#m)"/><path d="m24.3423 23.0746c1.341.7225 2.5426 1.0736 3.0993.5167 1.6513-1.6512-2.6004-7.4775-3.9709-9.0478.0703.3931.7739 3.7391.9189 4.483.1648.7921.3008 2.4448-.0473 4.0481z" fill="url(#n)"/><g filter="url(#a)"><path d="m27.4245 22.1422c-1.0871-2.8566-3.3291-5.8509-4.1843-6.8971l-.5312 3.3125c.8445.4968 2.9549 2.3952 4.277 3.8281.1864.2021.5363.0135.4385-.2435z" fill="url(#o)" fill-opacity=".75"/></g><path d="m16.0669 6.13184c3.4592 0 6.7021 3.17082 6.9904 6.30576.0275.2988.1754.9907.3691 1.8782l.9867 4.7106c.165.7929.3011 2.448-.0484 4.0528-.2407.9984-.671 1.9578-1.2527 2.8252l-.2639 3.068s-5.1331.9214-6.9949.895c-1.784-.0257-6.72083-.895-6.72083-.895l-.31034-3.068c-.57199-.8635-.99624-1.8228-1.23649-2.8305l-.00104.0006c-.34814-1.6033-.21216-3.256-.04739-4.0481l.98437-5.0469-.00479-.0009.0764-.3593c.11859-.5573.20808-.9778.24322-1.1817.5525-3.20693 3.36309-6.30576 7.23059-6.30576z" fill="url(#p)"/><path d="m16.0669 6.13184c3.4592 0 6.7021 3.17082 6.9904 6.30576.0275.2988.1754.9907.3691 1.8782l.9867 4.7106c.165.7929.3011 2.448-.0484 4.0528-.2407.9984-.671 1.9578-1.2527 2.8252l-.2639 3.068s-5.1331.9214-6.9949.895c-1.784-.0257-6.72083-.895-6.72083-.895l-.31034-3.068c-.57199-.8635-.99624-1.8228-1.23649-2.8305l-.00104.0006c-.34814-1.6033-.21216-3.256-.04739-4.0481l.98437-5.0469-.00479-.0009.0764-.3593c.11859-.5573.20808-.9778.24322-1.1817.5525-3.20693 3.36309-6.30576 7.23059-6.30576z" fill="url(#q)"/><path d="m16.0669 6.13184c3.4592 0 6.7021 3.17082 6.9904 6.30576.0275.2988.1754.9907.3691 1.8782l.9867 4.7106c.165.7929.3011 2.448-.0484 4.0528-.2407.9984-.671 1.9578-1.2527 2.8252l-.2639 3.068s-5.1331.9214-6.9949.895c-1.784-.0257-6.72083-.895-6.72083-.895l-.31034-3.068c-.57199-.8635-.99624-1.8228-1.23649-2.8305l-.00104.0006c-.34814-1.6033-.21216-3.256-.04739-4.0481l.98437-5.0469-.00479-.0009.0764-.3593c.11859-.5573.20808-.9778.24322-1.1817.5525-3.20693 3.36309-6.30576 7.23059-6.30576z" fill="url(#r)"/><path d="m16.0669 6.13184c3.4592 0 6.7021 3.17082 6.9904 6.30576.0275.2988.1754.9907.3691 1.8782l.9867 4.7106c.165.7929.3011 2.448-.0484 4.0528-.2407.9984-.671 1.9578-1.2527 2.8252l-.2639 3.068s-5.1331.9214-6.9949.895c-1.784-.0257-6.72083-.895-6.72083-.895l-.31034-3.068c-.57199-.8635-.99624-1.8228-1.23649-2.8305l-.00104.0006c-.34814-1.6033-.21216-3.256-.04739-4.0481l.98437-5.0469-.00479-.0009.0764-.3593c.11859-.5573.20808-.9778.24322-1.1817.5525-3.20693 3.36309-6.30576 7.23059-6.30576z" fill="url(#t)"/><path d="m16.0669 6.13184c3.4592 0 6.7021 3.17082 6.9904 6.30576.0275.2988.1754.9907.3691 1.8782l.9867 4.7106c.165.7929.3011 2.448-.0484 4.0528-.2407.9984-.671 1.9578-1.2527 2.8252l-.2639 3.068s-5.1331.9214-6.9949.895c-1.784-.0257-6.72083-.895-6.72083-.895l-.31034-3.068c-.57199-.8635-.99624-1.8228-1.23649-2.8305l-.00104.0006c-.34814-1.6033-.21216-3.256-.04739-4.0481l.98437-5.0469-.00479-.0009.0764-.3593c.11859-.5573.20808-.9778.24322-1.1817.5525-3.20693 3.36309-6.30576 7.23059-6.30576z" fill="url(#u)"/><g filter="url(#b)"><path d="m20.8221 16.211c.4861-.815.7557-1.8523.7557-3.1269 0-1.3381-.665-2.636-1.5513-3.59619-.8831-.9568-2.0111-1.60473-2.9626-1.60473-.1775 0-.2931.10135-.3695.22403-.0707.11342-.1187.26143-.1624.39611l-.003.00932c-.057.17562-.1101.33574-.1941.45432-.0775.10956-.1777.17865-.3412.17865-.1675 0-.2755-.07288-.3614-.1895-.0917-.12438-.1524-.2911-.2162-.46916l-.0031-.00872c-.0468-.13073-.0974-.27198-.1658-.37975-.0725-.11425-.1812-.21542-.3477-.21542-.9442 0-2.0811.63085-2.9753 1.58012-.8974.95262-1.5746 2.25082-1.5746 3.62092 0 1.2959.2738 2.3274.7529 3.1295-1.35855 1.2692-2.2065 3.0655-2.2065 5.0572 0 3.8493 3.166 6.9668 7.0677 6.9668 3.9016 0 7.0677-3.1175 7.0677-6.9668 0-1.993-.8491-3.7904-2.2093-5.0598z" stroke="url(#v)" stroke-width=".25"/></g><g filter="url(#c)"><path d="m20.6619 16.2334c.5052-.8041.7909-1.8461.7909-3.1493 0-2.5959-2.5853-5.07592-4.3889-5.07592-.2398 0-.324.2594-.416.54304-.111.34207-.2335.71939-.6542.71939-.4297 0-.5708-.39379-.6953-.74152-.0984-.27491-.1865-.52103-.3989-.52103-1.7916 0-4.4249 2.41684-4.4249 5.07604 0 1.3259.2905 2.3614.7882 3.1518-1.37825 1.2503-2.2418 3.0432-2.2418 5.0349 0 3.7786 3.1083 6.8418 6.9427 6.8418 3.8343 0 6.9427-3.0632 6.9427-6.8418 0-1.993-.8647-3.787-2.2445-5.0374z" fill="url(#w)"/><path d="m20.6619 16.2334c.5052-.8041.7909-1.8461.7909-3.1493 0-2.5959-2.5853-5.07592-4.3889-5.07592-.2398 0-.324.2594-.416.54304-.111.34207-.2335.71939-.6542.71939-.4297 0-.5708-.39379-.6953-.74152-.0984-.27491-.1865-.52103-.3989-.52103-1.7916 0-4.4249 2.41684-4.4249 5.07604 0 1.3259.2905 2.3614.7882 3.1518-1.37825 1.2503-2.2418 3.0432-2.2418 5.0349 0 3.7786 3.1083 6.8418 6.9427 6.8418 3.8343 0 6.9427-3.0632 6.9427-6.8418 0-1.993-.8647-3.787-2.2445-5.0374z" fill="url(#x)"/></g><g filter="url(#d)"><path d="m13.3848 17.3975 5.2304-2.8438-5.2304-.2773z" fill="url(#y)"/><path d="m13.3848 17.3975 5.2304-2.8438-5.2304-.2773z" fill="url(#z)"/></g><path d="m13.3848 14.5537h5.2109c0-1.4389-1.1665-2.6055-2.6055-2.6055-1.4389 0-2.6054 1.1666-2.6054 2.6055z" fill="#f97725"/><path d="m13.3848 14.5537h5.2109c0-1.4389-1.1665-2.6055-2.6055-2.6055-1.4389 0-2.6054 1.1666-2.6054 2.6055z" fill="url(#B)"/><path d="m13.3848 14.5537h5.2109c0-1.4389-1.1665-2.6055-2.6055-2.6055-1.4389 0-2.6054 1.1666-2.6054 2.6055z" fill="url(#C)"/><path d="m13.3848 14.5537h5.2109c0-1.4389-1.1665-2.6055-2.6055-2.6055-1.4389 0-2.6054 1.1666-2.6054 2.6055z" fill="url(#E)"/><g filter="url(#e)"><rect fill="#b5aaba" height="1.64062" rx=".453125" width=".90625" x="13.9355" y="9.87012"/></g><g filter="url(#f)"><rect fill="#b5aaba" height="1.64062" rx=".453125" width=".90625" x="16.9355" y="9.87012"/></g><rect fill="url(#G)" height="1.64062" rx=".453125" width=".90625" x="14.0371" y="9.79199"/><rect fill="url(#I)" height="1.64062" rx=".453125" width=".90625" x="14.0371" y="9.79199"/><rect fill="url(#K)" height="1.64062" rx=".453125" width=".90625" x="14.0371" y="9.79199"/><rect fill="url(#L)" height="1.64062" rx=".453125" width=".90625" x="17.0371" y="9.79199"/><rect fill="url(#M)" height="1.64062" rx=".453125" width=".90625" x="17.0371" y="9.79199"/><rect fill="url(#N)" height="1.64062" rx=".453125" width=".90625" x="17.0371" y="9.79199"/><g filter="url(#g)"><rect fill="#76676a" height="1.19687" rx=".160156" width=".320312" x="17.4512" y="10.0139"/></g><g filter="url(#h)"><rect fill="#76676a" height="1.19687" rx=".160156" width=".320312" x="14.4355" y="10.0139"/></g><path d="m15.9902 29.8681 7.7819.0002c.2125 0 .3857-.1726.3759-.3849-.06-1.3031-.4228-2.5274-1.0196-3.6038-1.5419 2.3149-4.161 3.9798-7.1382 3.9885z" fill="#ff9d63"/><path d="m15.9902 29.8681 7.7819.0002c.2125 0 .3857-.1726.3759-.3849-.06-1.3031-.4228-2.5274-1.0196-3.6038-1.5419 2.3149-4.161 3.9798-7.1382 3.9885z" fill="url(#O)"/><path d="m15.9902 29.8681 7.7819.0002c.2125 0 .3857-.1726.3759-.3849-.06-1.3031-.4228-2.5274-1.0196-3.6038-1.5419 2.3149-4.161 3.9798-7.1382 3.9885z" fill="url(#P)"/><path d="m15.9902 29.8681 7.7819.0002c.2125 0 .3857-.1726.3759-.3849-.06-1.3031-.4228-2.5274-1.0196-3.6038-1.5419 2.3149-4.161 3.9798-7.1382 3.9885z" fill="url(#Q)"/><path d="m15.9902 29.8681 7.7819.0002c.2125 0 .3857-.1726.3759-.3849-.06-1.3031-.4228-2.5274-1.0196-3.6038-1.5419 2.3149-4.161 3.9798-7.1382 3.9885z" fill="url(#S)"/><path d="m15.9636 29.8681-7.78181.0002c-.21252 0-.38571-.1726-.37594-.3849.05996-1.3031.42285-2.5274 1.01959-3.6038 1.54186 2.3149 4.16096 3.9798 7.13816 3.9885z" fill="#dd4533"/><path d="m15.9636 29.8681-7.78181.0002c-.21252 0-.38571-.1726-.37594-.3849.05996-1.3031.42285-2.5274 1.01959-3.6038 1.54186 2.3149 4.16096 3.9798 7.13816 3.9885z" fill="url(#T)"/><path d="m15.9636 29.8681-7.78181.0002c-.21252 0-.38571-.1726-.37594-.3849.05996-1.3031.42285-2.5274 1.01959-3.6038 1.54186 2.3149 4.16096 3.9798 7.13816 3.9885z" fill="url(#U)"/></svg>