<svg fill="none" height="32" viewBox="0 0 32 32" width="32" xmlns="http://www.w3.org/2000/svg" xmlns:xlink="http://www.w3.org/1999/xlink"><filter id="a" color-interpolation-filters="sRGB" filterUnits="userSpaceOnUse" height="22.6135" width="23.3174" x="4.57715" y="2.06885"><feFlood flood-opacity="0" result="BackgroundImageFix"/><feBlend in="SourceGraphic" in2="BackgroundImageFix" mode="normal" result="shape"/><feColorMatrix in="SourceAlpha" result="hardAlpha" type="matrix" values="0 0 0 0 0 0 0 0 0 0 0 0 0 0 0 0 0 0 127 0"/><feOffset dx=".5"/><feGaussianBlur stdDeviation=".5"/><feComposite in2="hardAlpha" k2="-1" k3="1" operator="arithmetic"/><feColorMatrix type="matrix" values="0 0 0 0 0.619608 0 0 0 0 0.72549 0 0 0 0 0.639216 0 0 0 1 0"/><feBlend in2="shape" mode="normal" result="effect1_innerShadow_28327_7673"/></filter><filter id="b" color-interpolation-filters="sRGB" filterUnits="userSpaceOnUse" height="6.89404" width="3.33447" x="15.2808" y="23.958"><feFlood flood-opacity="0" result="BackgroundImageFix"/><feBlend in="SourceGraphic" in2="BackgroundImageFix" mode="normal" result="shape"/><feGaussianBlur result="effect1_foregroundBlur_28327_7673" stdDeviation=".5"/></filter><filter id="c" color-interpolation-filters="sRGB" filterUnits="userSpaceOnUse" height="6.89404" width="2.74487" x="14.5359" y="23.958"><feFlood flood-opacity="0" result="BackgroundImageFix"/><feBlend in="SourceGraphic" in2="BackgroundImageFix" mode="normal" result="shape"/><feGaussianBlur result="effect1_foregroundBlur_28327_7673" stdDeviation=".5"/></filter><filter id="d" color-interpolation-filters="sRGB" filterUnits="userSpaceOnUse" height="8.97217" width="9.33484" x="18.0163" y="7.39966"><feFlood flood-opacity="0" result="BackgroundImageFix"/><feBlend in="SourceGraphic" in2="BackgroundImageFix" mode="normal" result="shape"/><feGaussianBlur result="effect1_foregroundBlur_28327_7673" stdDeviation="1"/></filter><filter id="e" color-interpolation-filters="sRGB" filterUnits="userSpaceOnUse" height="8.05225" width="9.12085" x="13.0043" y="1.875"><feFlood flood-opacity="0" result="BackgroundImageFix"/><feBlend in="SourceGraphic" in2="BackgroundImageFix" mode="normal" result="shape"/><feGaussianBlur result="effect1_foregroundBlur_28327_7673" stdDeviation="1"/></filter><filter id="f" color-interpolation-filters="sRGB" filterUnits="userSpaceOnUse" height="8.97217" width="9.33484" x="19.032" y="14.2891"><feFlood flood-opacity="0" result="BackgroundImageFix"/><feBlend in="SourceGraphic" in2="BackgroundImageFix" mode="normal" result="shape"/><feGaussianBlur result="effect1_foregroundBlur_28327_7673" stdDeviation="1"/></filter><filter id="g" color-interpolation-filters="sRGB" filterUnits="userSpaceOnUse" height="2.28437" width="17.0188" x="8.48281" y="14.1986"><feFlood flood-opacity="0" result="BackgroundImageFix"/><feBlend in="SourceGraphic" in2="BackgroundImageFix" mode="normal" result="shape"/><feGaussianBlur result="effect1_foregroundBlur_28327_7673" stdDeviation=".325"/></filter><filter id="h" color-interpolation-filters="sRGB" filterUnits="userSpaceOnUse" height="2.5499" width="10.9094" x="10.5453" y="6.93306"><feFlood flood-opacity="0" result="BackgroundImageFix"/><feBlend in="SourceGraphic" in2="BackgroundImageFix" mode="normal" result="shape"/><feGaussianBlur result="effect1_foregroundBlur_28327_7673" stdDeviation=".225"/></filter><filter id="i" color-interpolation-filters="sRGB" filterUnits="userSpaceOnUse" height="6.95312" width="5.12506" x="10.5054" y="1.87988"><feFlood flood-opacity="0" result="BackgroundImageFix"/><feBlend in="SourceGraphic" in2="BackgroundImageFix" mode="normal" result="shape"/><feGaussianBlur result="effect1_foregroundBlur_28327_7673" stdDeviation=".5"/></filter><filter id="j" color-interpolation-filters="sRGB" filterUnits="userSpaceOnUse" height="10.1733" width="5.98511" x="5.39209" y="6.69751"><feFlood flood-opacity="0" result="BackgroundImageFix"/><feBlend in="SourceGraphic" in2="BackgroundImageFix" mode="normal" result="shape"/><feGaussianBlur result="effect1_foregroundBlur_28327_7673" stdDeviation=".625"/></filter><filter id="k" color-interpolation-filters="sRGB" filterUnits="userSpaceOnUse" height="11.2795" width="5.71899" x="3.9834" y="13.7446"><feFlood flood-opacity="0" result="BackgroundImageFix"/><feBlend in="SourceGraphic" in2="BackgroundImageFix" mode="normal" result="shape"/><feGaussianBlur result="effect1_foregroundBlur_28327_7673" stdDeviation=".625"/></filter><linearGradient id="l" gradientUnits="userSpaceOnUse" x1="13.0977" x2="15.5359" y1="28.3025" y2="28.3025"><stop offset="0" stop-color="#908181"/><stop offset="1" stop-color="#908181" stop-opacity="0"/></linearGradient><linearGradient id="m" gradientUnits="userSpaceOnUse" x1="13.6985" x2="14.3954" y1="27.7322" y2="27.7322"><stop offset="0" stop-color="#5b363a"/><stop offset="1" stop-color="#5b363a" stop-opacity="0"/></linearGradient><linearGradient id="n" gradientUnits="userSpaceOnUse" x1="15.9859" x2="15.9859" y1="30.1327" y2="29.734"><stop offset="0" stop-color="#6a2f5b"/><stop offset="1" stop-color="#6a2f5b" stop-opacity="0"/></linearGradient><linearGradient id="o" gradientUnits="userSpaceOnUse" x1="18.7891" x2="17.8984" y1="26.708" y2="26.708"><stop offset="0" stop-color="#6d5c5c"/><stop offset="1" stop-color="#6d5c5c" stop-opacity="0"/></linearGradient><radialGradient id="p" cx="0" cy="0" gradientTransform="matrix(.01562579 2.15625338 -.79705907 .00577607 17.5547 24.6768)" gradientUnits="userSpaceOnUse" r="1"><stop offset=".406931" stop-color="#4d2d31"/><stop offset="1" stop-color="#4d2d31" stop-opacity="0"/></radialGradient><radialGradient id="q" cx="0" cy="0" gradientTransform="matrix(-16.5625 0 0 -16.7118 23.8828 15.5829)" gradientUnits="userSpaceOnUse" r="1"><stop offset="0" stop-color="#7cbe4d"/><stop offset="1" stop-color="#549756"/></radialGradient><linearGradient id="r"><stop offset="0" stop-color="#438154"/><stop offset="1" stop-color="#438154" stop-opacity="0"/></linearGradient><radialGradient id="s" cx="0" cy="0" gradientTransform="matrix(8.56250199 -3.81250429 4.24459451 9.53293326 6.94531 23.2704)" gradientUnits="userSpaceOnUse" r="1" xlink:href="#r"/><radialGradient id="t" cx="0" cy="0" gradientTransform="matrix(9 0 0 6.69653 5.32031 13.3756)" gradientUnits="userSpaceOnUse" r="1" xlink:href="#r"/><radialGradient id="u" cx="0" cy="0" gradientTransform="matrix(6.12500285 2.9375019 -2.24943773 4.69031611 10.5703 4.58291)" gradientUnits="userSpaceOnUse" r="1" xlink:href="#r"/><radialGradient id="v" cx="0" cy="0" gradientTransform="matrix(-2.12499547 .78125663 -.32301138 -.87858162 9.97656 7.23916)" gradientUnits="userSpaceOnUse" r="1" xlink:href="#r"/><linearGradient id="w"><stop offset="0" stop-color="#81cb44"/><stop offset="1" stop-color="#81cb44" stop-opacity="0"/></linearGradient><radialGradient id="x" cx="0" cy="0" gradientTransform="matrix(-6.31249919 1.23022728 -1.27947455 -6.56519507 25.8828 12.1454)" gradientUnits="userSpaceOnUse" r="1" xlink:href="#w"/><radialGradient id="y" cx="0" cy="0" gradientTransform="matrix(-8.81248467 -1.93755041 2.01511282 -9.16525869 28.5703 19.5829)" gradientUnits="userSpaceOnUse" r="1" xlink:href="#w"/><radialGradient id="z" cx="0" cy="0" gradientTransform="matrix(-7.02192827 3.12504234 -3.29229036 -7.39773234 23.0078 3.64541)" gradientUnits="userSpaceOnUse" r="1" xlink:href="#w"/><radialGradient id="A" cx="0" cy="0" gradientTransform="matrix(12.75002033 -1.43750141 .75868005 6.72916635 8.32031 26.9579)" gradientUnits="userSpaceOnUse" r="1"><stop offset="0" stop-color="#5a6f6c"/><stop offset="1" stop-color="#5a6f6c" stop-opacity="0"/></radialGradient><linearGradient id="B" gradientUnits="userSpaceOnUse" x1="11.6939" x2="11.8208" y1="25.3057" y2="23.3594"><stop offset="0" stop-color="#7a7397"/><stop offset="1" stop-color="#7a7397" stop-opacity="0"/></linearGradient><radialGradient id="C" cx="0" cy="0" gradientTransform="matrix(7.78511 0 0 3.07216 13.4709 14.1358)" gradientUnits="userSpaceOnUse" r="1"><stop offset="0" stop-color="#5b8f67"/><stop offset=".83377" stop-color="#5b8f67" stop-opacity="0"/></radialGradient><linearGradient id="D" gradientUnits="userSpaceOnUse" x1="16.948" x2="16.948" y1="22.1924" y2="29.852"><stop offset="0" stop-color="#7f5b60" stop-opacity="0"/><stop offset="1" stop-color="#7f5b60"/></linearGradient><linearGradient id="E" gradientUnits="userSpaceOnUse" x1=".372433" x2=".372433" y1="-1.04404" y2="4.89396"><stop offset="0" stop-color="#683b4b" stop-opacity="0"/><stop offset="1" stop-color="#683b4b"/></linearGradient><linearGradient id="F"><stop offset="0" stop-color="#a0e271"/><stop offset="1" stop-color="#a0e271" stop-opacity="0"/></linearGradient><radialGradient id="G" cx="0" cy="0" gradientTransform="matrix(-4.24332266 1.61248032 -1.12002301 -2.94739659 24.2511 11.4761)" gradientUnits="userSpaceOnUse" r="1" xlink:href="#F"/><radialGradient id="H" cx="0" cy="0" gradientTransform="matrix(-4.32953804 1.29233712 -.55495301 -1.85918219 19.9923 5.45704)" gradientUnits="userSpaceOnUse" r="1" xlink:href="#F"/><radialGradient id="I" cx="0" cy="0" gradientTransform="matrix(-4.24332266 1.61248032 -1.12002301 -2.94739659 25.2669 18.3655)" gradientUnits="userSpaceOnUse" r="1" xlink:href="#F"/><linearGradient id="J" gradientUnits="userSpaceOnUse" x1="25.6953" x2="9.38281" y1="15.583" y2="15.583"><stop offset=".091954" stop-color="#9ddb71"/><stop offset="1" stop-color="#6ca663" stop-opacity="0"/></linearGradient><linearGradient id="K" gradientUnits="userSpaceOnUse" x1="21.1101" x2="8.82031" y1="8.83305" y2="8.83305"><stop offset="0" stop-color="#9ddb71"/><stop offset=".505208" stop-color="#6ca663" stop-opacity="0"/><stop offset="1" stop-color="#6ca663"/></linearGradient><linearGradient id="L"><stop offset="0" stop-color="#8fb48e"/><stop offset="1" stop-color="#8fb48e" stop-opacity="0"/></linearGradient><linearGradient id="M" gradientUnits="userSpaceOnUse" x1="12.5317" x2="16.8927" xlink:href="#L" y1="7.43905" y2="-.492836"/><linearGradient id="N" gradientUnits="userSpaceOnUse" x1="7.77492" x2="15.8414" xlink:href="#L" y1="15.1391" y2="4.78185"/><linearGradient id="O" gradientUnits="userSpaceOnUse" x1="6.38281" x2="3.59811" xlink:href="#L" y1="16.5831" y2="23.3465"/><rect fill="#5b363a" height="8.36222" rx=".25" width="4.57479" x="13.6985" y="21.7705"/><rect fill="url(#l)" height="8.36222" rx=".25" width="4.57479" x="13.6985" y="21.7705"/><rect fill="url(#m)" height="8.36222" rx=".25" width="4.57479" x="13.6985" y="21.7705"/><rect fill="url(#n)" height="8.36222" rx=".25" width="4.57479" x="13.6985" y="21.7705"/><rect fill="url(#o)" height="8.36222" rx=".25" width="4.57479" x="13.6985" y="21.7705"/><rect fill="url(#p)" height="8.36222" rx=".25" width="4.57479" x="13.6985" y="21.7705"/><g filter="url(#a)"><path d="m21.2192 7.32684c-.0929-.00916-.1643-.08775-.1643-.18106 0-2.80391-2.273-5.07693-5.0769-5.07693-2.804 0-5.077 2.27302-5.077 5.07693 0 .09397-.0718.17322-.1653.18276-2.65821.27101-4.7324 2.51641-4.7324 5.24626 0 .8156.18518 1.588.51574 2.2774.08658.1805.04123.399-.1102.53-1.12191.9709-1.83169 2.4052-1.83169 4.0054 0 2.9242 2.3706 5.2948 5.29486 5.2948h12.22769c2.9243 0 5.2949-2.3706 5.2949-5.2948 0-1.6002-.7098-3.0345-1.8317-4.0054-.1514-.131-.1967-.3495-.1101-.53.3305-.6894.5156-1.4618.5156-2.2774 0-2.73562-2.0828-4.98475-4.7492-5.24796z" fill="url(#q)"/><path d="m21.2192 7.32684c-.0929-.00916-.1643-.08775-.1643-.18106 0-2.80391-2.273-5.07693-5.0769-5.07693-2.804 0-5.077 2.27302-5.077 5.07693 0 .09397-.0718.17322-.1653.18276-2.65821.27101-4.7324 2.51641-4.7324 5.24626 0 .8156.18518 1.588.51574 2.2774.08658.1805.04123.399-.1102.53-1.12191.9709-1.83169 2.4052-1.83169 4.0054 0 2.9242 2.3706 5.2948 5.29486 5.2948h12.22769c2.9243 0 5.2949-2.3706 5.2949-5.2948 0-1.6002-.7098-3.0345-1.8317-4.0054-.1514-.131-.1967-.3495-.1101-.53.3305-.6894.5156-1.4618.5156-2.2774 0-2.73562-2.0828-4.98475-4.7492-5.24796z" fill="url(#s)"/><path d="m21.2192 7.32684c-.0929-.00916-.1643-.08775-.1643-.18106 0-2.80391-2.273-5.07693-5.0769-5.07693-2.804 0-5.077 2.27302-5.077 5.07693 0 .09397-.0718.17322-.1653.18276-2.65821.27101-4.7324 2.51641-4.7324 5.24626 0 .8156.18518 1.588.51574 2.2774.08658.1805.04123.399-.1102.53-1.12191.9709-1.83169 2.4052-1.83169 4.0054 0 2.9242 2.3706 5.2948 5.29486 5.2948h12.22769c2.9243 0 5.2949-2.3706 5.2949-5.2948 0-1.6002-.7098-3.0345-1.8317-4.0054-.1514-.131-.1967-.3495-.1101-.53.3305-.6894.5156-1.4618.5156-2.2774 0-2.73562-2.0828-4.98475-4.7492-5.24796z" fill="url(#t)"/><path d="m21.2192 7.32684c-.0929-.00916-.1643-.08775-.1643-.18106 0-2.80391-2.273-5.07693-5.0769-5.07693-2.804 0-5.077 2.27302-5.077 5.07693 0 .09397-.0718.17322-.1653.18276-2.65821.27101-4.7324 2.51641-4.7324 5.24626 0 .8156.18518 1.588.51574 2.2774.08658.1805.04123.399-.1102.53-1.12191.9709-1.83169 2.4052-1.83169 4.0054 0 2.9242 2.3706 5.2948 5.29486 5.2948h12.22769c2.9243 0 5.2949-2.3706 5.2949-5.2948 0-1.6002-.7098-3.0345-1.8317-4.0054-.1514-.131-.1967-.3495-.1101-.53.3305-.6894.5156-1.4618.5156-2.2774 0-2.73562-2.0828-4.98475-4.7492-5.24796z" fill="url(#u)"/><path d="m21.2192 7.32684c-.0929-.00916-.1643-.08775-.1643-.18106 0-2.80391-2.273-5.07693-5.0769-5.07693-2.804 0-5.077 2.27302-5.077 5.07693 0 .09397-.0718.17322-.1653.18276-2.65821.27101-4.7324 2.51641-4.7324 5.24626 0 .8156.18518 1.588.51574 2.2774.08658.1805.04123.399-.1102.53-1.12191.9709-1.83169 2.4052-1.83169 4.0054 0 2.9242 2.3706 5.2948 5.29486 5.2948h12.22769c2.9243 0 5.2949-2.3706 5.2949-5.2948 0-1.6002-.7098-3.0345-1.8317-4.0054-.1514-.131-.1967-.3495-.1101-.53.3305-.6894.5156-1.4618.5156-2.2774 0-2.73562-2.0828-4.98475-4.7492-5.24796z" fill="url(#v)"/><path d="m21.2192 7.32684c-.0929-.00916-.1643-.08775-.1643-.18106 0-2.80391-2.273-5.07693-5.0769-5.07693-2.804 0-5.077 2.27302-5.077 5.07693 0 .09397-.0718.17322-.1653.18276-2.65821.27101-4.7324 2.51641-4.7324 5.24626 0 .8156.18518 1.588.51574 2.2774.08658.1805.04123.399-.1102.53-1.12191.9709-1.83169 2.4052-1.83169 4.0054 0 2.9242 2.3706 5.2948 5.29486 5.2948h12.22769c2.9243 0 5.2949-2.3706 5.2949-5.2948 0-1.6002-.7098-3.0345-1.8317-4.0054-.1514-.131-.1967-.3495-.1101-.53.3305-.6894.5156-1.4618.5156-2.2774 0-2.73562-2.0828-4.98475-4.7492-5.24796z" fill="url(#x)"/><path d="m21.2192 7.32684c-.0929-.00916-.1643-.08775-.1643-.18106 0-2.80391-2.273-5.07693-5.0769-5.07693-2.804 0-5.077 2.27302-5.077 5.07693 0 .09397-.0718.17322-.1653.18276-2.65821.27101-4.7324 2.51641-4.7324 5.24626 0 .8156.18518 1.588.51574 2.2774.08658.1805.04123.399-.1102.53-1.12191.9709-1.83169 2.4052-1.83169 4.0054 0 2.9242 2.3706 5.2948 5.29486 5.2948h12.22769c2.9243 0 5.2949-2.3706 5.2949-5.2948 0-1.6002-.7098-3.0345-1.8317-4.0054-.1514-.131-.1967-.3495-.1101-.53.3305-.6894.5156-1.4618.5156-2.2774 0-2.73562-2.0828-4.98475-4.7492-5.24796z" fill="url(#y)"/><path d="m21.2192 7.32684c-.0929-.00916-.1643-.08775-.1643-.18106 0-2.80391-2.273-5.07693-5.0769-5.07693-2.804 0-5.077 2.27302-5.077 5.07693 0 .09397-.0718.17322-.1653.18276-2.65821.27101-4.7324 2.51641-4.7324 5.24626 0 .8156.18518 1.588.51574 2.2774.08658.1805.04123.399-.1102.53-1.12191.9709-1.83169 2.4052-1.83169 4.0054 0 2.9242 2.3706 5.2948 5.29486 5.2948h12.22769c2.9243 0 5.2949-2.3706 5.2949-5.2948 0-1.6002-.7098-3.0345-1.8317-4.0054-.1514-.131-.1967-.3495-.1101-.53.3305-.6894.5156-1.4618.5156-2.2774 0-2.73562-2.0828-4.98475-4.7492-5.24796z" fill="url(#z)"/><path d="m21.2192 7.32684c-.0929-.00916-.1643-.08775-.1643-.18106 0-2.80391-2.273-5.07693-5.0769-5.07693-2.804 0-5.077 2.27302-5.077 5.07693 0 .09397-.0718.17322-.1653.18276-2.65821.27101-4.7324 2.51641-4.7324 5.24626 0 .8156.18518 1.588.51574 2.2774.08658.1805.04123.399-.1102.53-1.12191.9709-1.83169 2.4052-1.83169 4.0054 0 2.9242 2.3706 5.2948 5.29486 5.2948h12.22769c2.9243 0 5.2949-2.3706 5.2949-5.2948 0-1.6002-.7098-3.0345-1.8317-4.0054-.1514-.131-.1967-.3495-.1101-.53.3305-.6894.5156-1.4618.5156-2.2774 0-2.73562-2.0828-4.98475-4.7492-5.24796z" fill="url(#A)"/><path d="m21.2192 7.32684c-.0929-.00916-.1643-.08775-.1643-.18106 0-2.80391-2.273-5.07693-5.0769-5.07693-2.804 0-5.077 2.27302-5.077 5.07693 0 .09397-.0718.17322-.1653.18276-2.65821.27101-4.7324 2.51641-4.7324 5.24626 0 .8156.18518 1.588.51574 2.2774.08658.1805.04123.399-.1102.53-1.12191.9709-1.83169 2.4052-1.83169 4.0054 0 2.9242 2.3706 5.2948 5.29486 5.2948h12.22769c2.9243 0 5.2949-2.3706 5.2949-5.2948 0-1.6002-.7098-3.0345-1.8317-4.0054-.1514-.131-.1967-.3495-.1101-.53.3305-.6894.5156-1.4618.5156-2.2774 0-2.73562-2.0828-4.98475-4.7492-5.24796z" fill="url(#B)"/><path d="m21.2192 7.32684c-.0929-.00916-.1643-.08775-.1643-.18106 0-2.80391-2.273-5.07693-5.0769-5.07693-2.804 0-5.077 2.27302-5.077 5.07693 0 .09397-.0718.17322-.1653.18276-2.65821.27101-4.7324 2.51641-4.7324 5.24626 0 .8156.18518 1.588.51574 2.2774.08658.1805.04123.399-.1102.53-1.12191.9709-1.83169 2.4052-1.83169 4.0054 0 2.9242 2.3706 5.2948 5.29486 5.2948h12.22769c2.9243 0 5.2949-2.3706 5.2949-5.2948 0-1.6002-.7098-3.0345-1.8317-4.0054-.1514-.131-.1967-.3495-.1101-.53.3305-.6894.5156-1.4618.5156-2.2774 0-2.73562-2.0828-4.98475-4.7492-5.24796z" fill="url(#C)" fill-opacity=".75"/></g><g filter="url(#b)"><path d="m16.2808 24.958h1.33447v4.89396h-1.33447z" fill="url(#D)"/></g><g filter="url(#c)"><path d="m0 0h.744866v4.89396h-.744866z" fill="url(#E)" transform="matrix(-1 0 0 1 16.2808 24.958)"/></g><g filter="url(#d)"><ellipse cx="22.6837" cy="11.8856" fill="url(#G)" rx="2.67589" ry="2.47579" transform="matrix(.97637037 -.21610392 .21610392 .97637037 -2.032517 5.182889)"/></g><g filter="url(#e)"><ellipse cx="17.5648" cy="5.90113" fill="url(#H)" rx="2.56855" ry="2.01524" transform="matrix(.99152913 -.12988453 .12988453 .99152913 -.617676 2.331384)"/></g><g filter="url(#f)"><ellipse cx="23.6994" cy="18.7751" fill="url(#I)" rx="2.67589" ry="2.47579" transform="matrix(.97637037 -.21610392 .21610392 .97637037 -3.497365 5.565182)"/></g><g filter="url(#g)"><path d="m9.38281 15.583h10.87499c1-.0156 3.2688-.1344 4.3438-.4844" stroke="url(#J)" stroke-linecap="round" stroke-linejoin="round" stroke-width=".5"/></g><g filter="url(#h)"><path d="m11.1953 7.58301c.6771.41666 2.575 1.25 4.75 1.25s4.2656-.83334 4.8594-1.25" stroke="url(#K)" stroke-linecap="round" stroke-width=".4"/></g><g filter="url(#i)"><path d="m14.3804 3.12988c-.8646.32292-2.625 1.35313-2.625 4.45313" stroke="url(#M)" stroke-linecap="round" stroke-width=".5"/></g><g filter="url(#j)"><path d="m9.87716 8.19751c-.81109.23174-2.52807 1.2198-2.90729 3.31809-.29754 1.6466.32655 3.4446.72683 3.8554" stroke="url(#N)" stroke-linecap="round" stroke-width=".5"/></g><g filter="url(#k)"><path d="m7.63354 15.2446c-.73735.3898-2.19941 1.7634-2.14886 4.1398.05054 2.3764 1.83284 3.75 2.71767 4.1397" stroke="url(#O)" stroke-linecap="round" stroke-width=".5"/></g></svg>